M48
METRIC,TZ
T01C.5
;LEADER: 12 
;HEADER: 
;CODE  : ASCII 
;FILE  : BOOM-MCU_01v1-1-2.drl for  ... layers TOP and BOTTOM
;DESIGN: BOOM-MCU_01v1.brd
;T01 Holesize 1. = 0.500000 Tolerance = +0.000000/-0.000000 PLATED MM Quantity = 95
%
G90
T01
X609600Y-254000
X-609600
X349080Y69680
X222250Y-101600
X-25400Y279400
X-279400Y139700
X-25400Y254000
X-292100Y165100
Y139700
X-76200Y279400
X469900Y-176750
X-50800Y114300
X-63500Y279400
X-50800Y139700
X-368300Y177800
X215900Y241300
Y215900
Y279400
Y177800
X323850Y-222250
X292100Y-241300
X336550Y-88900
X304800Y-44450
X374650Y-38100
X552450Y38100
R02Y-101600
X488950Y12700
X477200Y-159250
X-368300Y203200
X-342900Y177800
X608450Y113150
X196850Y82550
X50800Y152400
Y-152400
X609600Y254000
X-609600
X127000Y266700
Y215900
X177800Y266700
Y215900
X279400Y266700
Y215900
X330200Y266700
Y215900
X381000Y266700
Y215900
X431800Y266700
Y215900
X482600Y266700
Y215900
X533400Y266700
Y215900
X146050Y-6350
X158750Y12700
X177800Y31750
X292100Y6350
X383500Y-274400
X428500
X466000
X346000
X-393700Y63500
Y88900
X-368300Y63500
Y88900
X-342900Y63500
Y88900
X-317500Y63500
Y88900
X-292100Y63500
Y88900
X-266700Y63500
Y88900
X-241300Y63500
Y88900
X-215900Y63500
Y88900
X-190500Y63500
Y88900
X-165100Y63500
Y88900
X210550Y-127000
X259350
X622300Y-190500
X571500
X622300Y-38100
X571500
X622300Y-88900
X571500
X622300Y63500
X571500
X622300Y12700
X571500
X622300Y-139700
X571500
M30
