G04 ================== begin FILE IDENTIFICATION RECORD ==================*
G04 Layout Name:  D:/Project/Circuit/other/Boom/pcb-mcu/BOOM-MCU_01v1.brd*
G04 Film Name:    BOTTOM*
G04 File Format:  Gerber RS274X*
G04 File Origin:  Cadence Allegro 16.6-2015-S053*
G04 Origin Date:  Fri Sep 11 11:22:59 2015*
G04 *
G04 Layer:  ETCH/BOTTOM*
G04 Layer:  PIN/BOTTOM*
G04 Layer:  VIA CLASS/BOTTOM*
G04 *
G04 Offset:    (0.000 0.000)*
G04 Mirror:    No*
G04 Mode:      Positive*
G04 Rotation:  0*
G04 FullContactRelief:  No*
G04 UndefLineWidth:     0.250*
G04 ================== end FILE IDENTIFICATION RECORD ====================*
%FSLAX34Y34*MOMM*%
%IR0*IPPOS*OFA0.00000B0.00000*MIA0B0*SFA1.00000B1.00000*%
%ADD35O,.6X2.2*%
%ADD16C,1.2*%
%ADD25O,.45X1.6*%
%ADD27O,1.6X.45*%
%ADD10C,5.*%
%ADD26C,1.5*%
%ADD36C,1.6*%
%ADD20O,.6X2.075*%
%ADD13C,1.7*%
%ADD24C,1.9*%
%ADD30C,2.9*%
%ADD21R,.6X2.075*%
%ADD14R,1.7X1.7*%
%ADD12O,2.X1.02*%
%ADD23R,2.3X3.1*%
%ADD38O,1.8X2.3*%
%ADD32O,1.4X2.125*%
%ADD18R,5.4X3.*%
%ADD11R,1.8X1.2*%
%ADD22R,1.2X1.8*%
%ADD28R,1.2X1.45*%
%ADD19R,1.52X2.3*%
%ADD15R,1.8X1.4*%
%ADD33R,1.4X2.125*%
%ADD31R,1.4X1.8*%
%ADD37R,1.3X1.425*%
%ADD17R,2.45X2.4*%
%ADD34R,2.275X2.1*%
%ADD29R,2.275X2.25*%
%ADD39C,.4*%
%ADD40C,.8*%
G75*
%LPD*%
G75*
G36*
G01X361980Y-249400D02*
G03X362070Y-250690I9021J-19D01*
G01X362100Y-251050D01*
G02X359600Y-253550I-2500J0D01*
G01X358650Y-253290D01*
G02X358070Y-253060I624J2421D01*
G03X323870Y-284950I-12067J-21343D01*
G01X324150Y-285530D01*
X324070Y-286810D01*
X321470Y-290930D01*
G02X319350Y-292100I-2117J1330D01*
G01X-578850D01*
G02X-581170Y-290520I4J2500D01*
G01X-583160Y-285470D01*
X-582820Y-283970D01*
X-582250Y-283440D01*
G03X-639040Y-226650I-27350J29440D01*
G01X-639570Y-227220D01*
X-641070Y-227560D01*
X-646120Y-225570D01*
G02X-647700Y-223250I920J2324D01*
G01Y223250D01*
G02X-646120Y225570I2500J-4D01*
G01X-641070Y227560D01*
X-639570Y227220D01*
X-639040Y226650D01*
G03X-582250Y283440I29440J27350D01*
G01X-582820Y283970D01*
X-583160Y285470D01*
X-581170Y290520D01*
G02X-578850Y292100I2324J-920D01*
G01X-394930D01*
G02X-392930Y291100I0J-2500D01*
G01X-390180Y287440D01*
X-389960Y286280D01*
X-390130Y285710D01*
G03X-391020Y279430I21833J-6297D01*
G01Y254000D01*
G03X-384810Y238400I22717J7D01*
G02X-384790Y238380I-1757J-1777D01*
G02X-384120Y236680I-1830J-1703D01*
G01Y233220D01*
G02X-384790Y231520I-2500J3D01*
G01X-384800Y231510D01*
G03X-391020Y215900I16497J-15618D01*
G01Y177790D01*
G03X-388200Y166830I22722J3D01*
G01X-387880Y166250D01*
X-387900Y164930D01*
X-390420Y160650D01*
G02X-392580Y159420I-2154J1271D01*
G01X-439240D01*
G03X-453180Y153640I8J-19718D01*
G01X-521940Y84880D01*
G03X-527720Y70940I13938J-13948D01*
G01Y43640D01*
G02X-528440Y41890I-2500J5D01*
G01X-534000Y36240D01*
G03X-534720Y34490I1780J-1755D01*
G01Y18930D01*
G03X-532220Y16430I2500J0D01*
G01X-229780D01*
G03X-227280Y18930I0J2500D01*
G01Y34490D01*
G03X-228000Y36240I-2500J-5D01*
G01X-233560Y41890D01*
G02X-234280Y43640I1780J1755D01*
G01Y44380D01*
X-233330Y45310D01*
X-233290Y45350D01*
G03X-233140Y45480I-7798J9149D01*
G01X-230800Y45570D01*
G02X-229230Y45100I108J-2497D01*
G03X-215900Y40780I13330J18406D01*
G01X-152400D01*
G03X-136930Y51800I0J16368D01*
G01X-136670Y52550D01*
X-135370Y53480D01*
X-12700D01*
G03X10020Y76200I0J22720D01*
G01Y124810D01*
G02X11710Y127180I2501J4D01*
G01X16960Y128960D01*
X18490Y128500D01*
X18980Y127870D01*
G03X90950Y150860I31821J24532D01*
G01X90970Y151400D01*
X91470Y152390D01*
X94920Y155080D01*
G02X96960Y155560I1540J-1969D01*
G01X96970D01*
G03X101600Y155080I4645J22238D01*
G01X139700D01*
G03X155300Y161290I-7J22717D01*
G02X155320Y161310I1777J-1757D01*
G02X157020Y161980I1703J-1830D01*
G01X160480D01*
G02X162180Y161310I-3J-2500D01*
G01X162190Y161300D01*
G03X177800Y155080I15618J16497D01*
G01X215900D01*
G03X238620Y177800I0J22720D01*
G01Y279430D01*
G03X237730Y285710I-22722J-17D01*
G01X237560Y286280D01*
X237780Y287440D01*
X240530Y291100D01*
G02X242530Y292100I2000J-1500D01*
G01X578850D01*
G02X581170Y290520I-4J-2500D01*
G01X583160Y285470D01*
X582820Y283970D01*
X582250Y283440D01*
G03X639040Y226650I27350J-29440D01*
G01X639570Y227220D01*
X641070Y227560D01*
X646120Y225570D01*
G02X647700Y223250I-920J-2324D01*
G01Y-223250D01*
G02X646120Y-225570I-2500J4D01*
G01X641070Y-227560D01*
X639570Y-227220D01*
X639040Y-226650D01*
G03X582250Y-283440I-29440J-27350D01*
G01X582820Y-283970D01*
X583160Y-285470D01*
X581170Y-290520D01*
G02X578850Y-292100I-2324J920D01*
G01X492650D01*
G02X490530Y-290930I-3J2500D01*
G01X487930Y-286810D01*
X487850Y-285530D01*
X488130Y-284950D01*
G03X453930Y-253060I-22133J10547D01*
G02X453350Y-253290I-1204J2191D01*
G01X452400Y-253550D01*
G02X449900Y-251050I0J2500D01*
G01X449930Y-250690D01*
G03X450020Y-249400I-8931J1271D01*
G01Y-232660D01*
G02X451100Y-230060I3679J-4D01*
G01X453510Y-227650D01*
G03X459050Y-218210I-15360J15360D01*
G01X459280Y-217410D01*
X460610Y-216400D01*
X460910D01*
X462370Y-214940D01*
Y-192560D01*
G02X463250Y-190660I2500J-4D01*
G01X466140Y-188200D01*
G02X468160Y-187630I1626J-1899D01*
G03X480420Y-173460I1742J10882D01*
G02X480500Y-171750I2388J745D01*
G01X481110Y-170300D01*
G02X482270Y-169040I2307J-960D01*
G03X487950Y-156820I-5070J9787D01*
G01X487890Y-156550D01*
Y-153770D01*
X488220D01*
Y-128230D01*
G03X485720Y-125730I-2500J0D01*
G01X468680D01*
G03X466180Y-128230I0J-2500D01*
G01Y-153770D01*
X466510D01*
Y-156550D01*
X466450Y-156820D01*
G03X466180Y-159490I10749J-2436D01*
G01X466190Y-160000D01*
X465820Y-160940D01*
X462980Y-163850D01*
G02X461190Y-164600I-1786J1751D01*
G01X441830D01*
G03X439330Y-167100I0J-2500D01*
G01Y-194350D01*
G02X436830Y-196850I-2500J0D01*
G01X435620D01*
G02X433120Y-194350I0J2500D01*
G01Y-194230D01*
X375830D01*
G03X373330Y-196730I0J-2500D01*
G01Y-214840D01*
G02X371790Y-217150I-2500J-2D01*
G01X371090Y-217440D01*
X369610Y-217150D01*
X367850Y-215390D01*
G02X367120Y-213620I1770J1766D01*
G01Y-167100D01*
G03X364620Y-164600I-2500J0D01*
G01X352260D01*
G02X350470Y-163850I-4J2501D01*
G01X347940Y-161260D01*
X347830Y-159390D01*
X348410Y-158650D01*
G03X340450Y-142280I-7960J6250D01*
G01X330650D01*
G03X323420Y-159480I0J-10120D01*
G01X324140Y-160220D01*
X324130Y-162270D01*
X322490Y-163900D01*
G02X320730Y-164630I-1765J1769D01*
G01X312330D01*
G03X309830Y-167130I0J-2500D01*
G01Y-208880D01*
G02X307330Y-211380I-2500J0D01*
G01X280580D01*
G03X278080Y-213880I0J-2500D01*
G01Y-235370D01*
G03X278770Y-237090I2498J4D01*
G01X280770Y-239210D01*
X281130Y-240180D01*
X281100Y-240690D01*
G03X303100I11000J-610D01*
G01X303070Y-240180D01*
X303430Y-239210D01*
X305430Y-237090D01*
G03X306120Y-235370I-1808J1724D01*
G01Y-219680D01*
G02X307700Y-217350I2501J5D01*
G01X308410Y-217070D01*
X309900Y-217400D01*
X312520Y-220160D01*
X312880Y-221130D01*
X312850Y-221640D01*
G03X334850I11000J-610D01*
G01X334820Y-221130D01*
X335180Y-220160D01*
X337180Y-218040D01*
G03X337870Y-216320I-1808J1724D01*
G01Y-185800D01*
G02X338580Y-184050I2501J4D01*
G01X338860Y-183770D01*
X340450D01*
G02X342110Y-184400I1J-2499D01*
G01X345880Y-187730D01*
G02X346560Y-190500I-1654J-1874D01*
G01X346290Y-191220D01*
X345010Y-192100D01*
X344080Y-193030D01*
Y-213900D01*
G03X346580Y-216400I2500J0D01*
G01X347280D01*
X347880Y-218040D01*
G03X352940Y-226000I20423J7394D01*
G01X360900Y-233960D01*
G02X361980Y-236560I-2599J-2604D01*
G01Y-249400D01*
G37*
G36*
G01X-496450Y41430D02*
X-504300Y33450D01*
X-495300Y26950D01*
X-486300Y33450D01*
X-494150Y41430D01*
G03X-496450I-1150J-1630D01*
G37*
G36*
G01X-521850D02*
X-529700Y33450D01*
X-520700Y26950D01*
X-511700Y33450D01*
X-519550Y41430D01*
G03X-521850I-1150J-1630D01*
G37*
G36*
G01X-420250D02*
X-428100Y33450D01*
X-419100Y26950D01*
X-410100Y33450D01*
X-417950Y41430D01*
G03X-420250I-1150J-1630D01*
G37*
G36*
G01X-445650D02*
X-453500Y33450D01*
X-444500Y26950D01*
X-435500Y33450D01*
X-443350Y41430D01*
G03X-445650I-1150J-1630D01*
G37*
G36*
G01X-471050D02*
X-478900Y33450D01*
X-469900Y26950D01*
X-460900Y33450D01*
X-468750Y41430D01*
G03X-471050I-1150J-1630D01*
G37*
G36*
G01X-341490Y52890D02*
X-336890Y57490D01*
X-342900Y64000D01*
X-348910Y57490D01*
X-344310Y52890D01*
G03X-341490I1410J1420D01*
G37*
G36*
G01X-344050Y41430D02*
X-351900Y33450D01*
X-342900Y26950D01*
X-333900Y33450D01*
X-341750Y41430D01*
G03X-344050I-1150J-1630D01*
G37*
G36*
G01X-366890Y52890D02*
X-362290Y57490D01*
X-368300Y64000D01*
X-374310Y57490D01*
X-369710Y52890D01*
G03X-366890I1410J1420D01*
G37*
G36*
G01X-369450Y41430D02*
X-377300Y33450D01*
X-368300Y26950D01*
X-359300Y33450D01*
X-367150Y41430D01*
G03X-369450I-1150J-1630D01*
G37*
G36*
G01X-392500Y47050D02*
X-385200Y55000D01*
X-393700Y64000D01*
X-402200Y55000D01*
X-394900Y47050D01*
G03X-392500I1200J1600D01*
G37*
G36*
G01X-394850Y41430D02*
X-402700Y33450D01*
X-393700Y26950D01*
X-384700Y33450D01*
X-392550Y41430D01*
G03X-394850I-1150J-1630D01*
G37*
G36*
G01X-404310Y87490D02*
X-399710Y82890D01*
X-393200Y88900D01*
X-399710Y94910D01*
X-404310Y90310D01*
G03Y87490I1420J-1410D01*
G37*
G36*
G01X-369710Y99510D02*
X-374310Y94910D01*
X-368300Y88400D01*
X-362290Y94910D01*
X-366890Y99510D01*
G03X-369710I-1410J-1420D01*
G37*
G36*
G01X-344160Y100360D02*
G02X-346260Y96690I-6126J1069D01*
G01X-342890Y88400D01*
X-339870Y96830D01*
G02X-342130Y100400I3728J4861D01*
G03X-344160Y100360I-981J-1741D01*
G37*
G36*
G01X-280970Y105060D02*
G03X-291860Y111670I-11337J-6402D01*
G01X-292060Y111680D01*
X-292400Y111820D01*
X-304510Y123930D01*
G02X-304800Y124640I712J705D01*
G01Y152400D01*
G03X-317500Y165100I-12700J0D01*
G01X-368300D01*
G02X-381000Y177800I0J12700D01*
G01Y215900D01*
G02X-368300Y228600I12700J0D01*
G01X-355600D01*
G02X-342900Y215900I0J-12700D01*
G03X-330200Y203200I12700J0D01*
G01X-279400D01*
G02X-266700Y190500I0J-12700D01*
G01Y139700D01*
G03X-254000Y127000I12700J0D01*
G01X-165100D01*
G02X-152400Y114300I0J-12700D01*
G01Y93230D01*
G02X-152610Y92610I-1001J-6D01*
G03X-155470Y86950I12904J-10073D01*
G01X-155560Y86620D01*
X-156090Y86220D01*
X-215900D01*
G03X-230730Y80710I0J-22712D01*
G02X-231870Y80590I-656J756D01*
G03X-253380Y78830I-9429J-17091D01*
G02X-254620I-620J788D01*
G03X-270620Y82620I-12080J-15331D01*
G01X-270870Y82570D01*
X-271340Y82710D01*
X-272890Y84260D01*
X-273030Y84730D01*
X-272980Y84980D01*
G03X-280690Y104740I-19121J3923D01*
G02X-280970Y105060I594J802D01*
G37*
G36*
G01X-203200Y266700D02*
G02Y241300I0J-12700D01*
G01X-368300D01*
G02X-381000Y254000I0J12700D01*
G01Y279400D01*
G02X-368460Y292100I12701J0D01*
G02X-355600Y279400I159J-12700D01*
G03X-342900Y266700I12700J0D01*
G01X-203200D01*
G37*
G36*
G01X-265290Y52890D02*
X-260690Y57490D01*
X-266700Y64000D01*
X-272710Y57490D01*
X-268110Y52890D01*
G03X-265290I1410J1420D01*
G37*
G36*
G01X-267850Y41430D02*
X-275700Y33450D01*
X-266700Y26950D01*
X-257700Y33450D01*
X-265550Y41430D01*
G03X-267850I-1150J-1630D01*
G37*
G36*
G01X-290690Y52890D02*
X-286090Y57490D01*
X-292100Y64000D01*
X-298110Y57490D01*
X-293510Y52890D01*
G03X-290690I1410J1420D01*
G37*
G36*
G01X-293250Y41430D02*
X-301100Y33450D01*
X-292100Y26950D01*
X-283100Y33450D01*
X-290950Y41430D01*
G03X-293250I-1150J-1630D01*
G37*
G36*
G01X-316090Y52890D02*
X-311490Y57490D01*
X-317500Y64000D01*
X-323510Y57490D01*
X-318910Y52890D01*
G03X-316090I1410J1420D01*
G37*
G36*
G01X-318650Y41430D02*
X-326500Y33450D01*
X-317500Y26950D01*
X-308500Y33450D01*
X-316350Y41430D01*
G03X-318650I-1150J-1630D01*
G37*
G36*
G01X-318760Y100360D02*
G02X-320860Y96690I-6126J1069D01*
G01X-317490Y88400D01*
X-314470Y96830D01*
G02X-316730Y100400I3728J4861D01*
G03X-318760Y100360I-981J-1741D01*
G37*
G36*
G01X-293360D02*
G02X-295460Y96690I-6126J1069D01*
G01X-292090Y88400D01*
X-289070Y96830D01*
G02X-291330Y100400I3728J4861D01*
G03X-293360Y100360I-981J-1741D01*
G37*
G36*
G01X-239890Y52890D02*
X-235290Y57490D01*
X-241300Y64000D01*
X-247310Y57490D01*
X-242710Y52890D01*
G03X-239890I1410J1420D01*
G37*
G36*
G01X-242450Y41430D02*
X-250300Y33450D01*
X-241300Y26950D01*
X-232300Y33450D01*
X-240150Y41430D01*
G03X-242450I-1150J-1630D01*
G37*
G36*
G01X-64170Y176700D02*
Y170460D01*
G02X-65210Y168710I-1998J4D01*
G01X-68280Y167020D01*
G02X-70320Y167080I-969J1751D01*
G02X-75400Y173380I6831J10706D01*
G02X-75530Y174070I1867J709D01*
G01Y176700D01*
G03X-76050Y179350I-7020J-2D01*
G01X-76200Y179710D01*
Y203200D01*
G02X-63500Y215900I12700J0D01*
G01X0D01*
G03X12700Y228600I0J12700D01*
G01Y279400D01*
G02X25400Y292100I12700J0D01*
G01X31750D01*
G02X44450Y279400I0J-12700D01*
G01Y203200D01*
G02X31750Y190500I-12700J0D01*
G01X12700D01*
G03X0Y177800I0J-12700D01*
G01Y76200D01*
G02X-12700Y63500I-12700J0D01*
G01X-139700D01*
G03X-146050Y57150I0J-6350D01*
G02X-152400Y50800I-6350J0D01*
G01X-215900D01*
G02X-226880Y57120I0J12698D01*
G02X-227050Y58760I1728J1008D01*
G03X-226310Y64460I-14249J4748D01*
G01X-226340Y64950D01*
X-225960Y65830D01*
X-222700Y68500D01*
X-221760Y68710D01*
X-221290Y68580D01*
G03X-204300Y71370I5387J20319D01*
G02X-202100I1100J-1670D01*
G03X-178900I11600J17530D01*
G02X-176700I1100J-1670D01*
G03X-144240Y86320I11599J17530D01*
G02X-143430Y87690I1985J-249D01*
G02X-139700Y88900I3730J-5144D01*
G01X-38100D01*
G03X-25400Y101600I0J12700D01*
G01Y152400D01*
G03X-35790Y164890I-12702J0D01*
G01X-36510Y165020D01*
X-37430Y166130D01*
Y176700D01*
G03X-48890Y182130I-7019J-6D01*
G02X-50160Y181680I-1264J1551D01*
G01X-51440D01*
G02X-52710Y182130I-6J2001D01*
G03X-64170Y176700I-4441J-5436D01*
G37*
G36*
G01X-127000Y114300D02*
G02X-139700Y127000I0J12700D01*
G03X-152400Y139700I-12700J0D01*
G01X-241300D01*
G02X-254000Y152400I0J12700D01*
G01Y177800D01*
G02X-241300Y190500I12700J0D01*
G01X-101600D01*
G02X-89050Y179730I0J-12697D01*
G02X-89100Y179220I-986J-161D01*
G03X-89570Y176700I6550J-2525D01*
G01Y161940D01*
G03X-88980Y159140I7018J17D01*
G01X-88900Y158940D01*
Y127000D01*
G02X-101600Y114300I-12700J0D01*
G01X-127000D01*
G37*
G36*
G01X-50800Y101600D02*
X-63500D01*
G02X-76200Y114300I0J12700D01*
G01Y139700D01*
G02X-63500Y152400I12700J0D01*
G01X-50800D01*
G02X-38100Y139700I0J-12700D01*
G01Y114300D01*
G02X-50800Y101600I-12700J0D01*
G37*
G36*
G01X-76200Y228600D02*
G02X-88900Y241300I0J12700D01*
G01Y249880D01*
G02X-88710Y250460I999J-6D01*
G03X-87230Y255100I-6541J4642D01*
G01Y269860D01*
G03X-88120Y273530I-8020J-2D01*
G02X-88230Y273980I890J456D01*
G01Y279400D01*
G03X-88500Y282160I-14101J14D01*
G02X-88490Y282600I979J198D01*
G02X-76200Y292100I12290J-3200D01*
G01X-12700D01*
G02X0Y279400I0J-12700D01*
G01Y241300D01*
G02X-12700Y228600I-12700J0D01*
G01X-76200D01*
G37*
G36*
G01X152400Y177800D02*
G02X139700Y165100I-12700J0D01*
G01X101600D01*
G02X88900Y177800I0J12700D01*
G01Y279400D01*
G02X101600Y292100I12700J0D01*
G01X139700D01*
G02X152400Y279400I0J-12700D01*
G01Y177800D01*
G37*
G36*
G01X215900Y292100D02*
G02X228600Y279400I0J-12700D01*
G01Y177800D01*
G02X215900Y165100I-12700J0D01*
G01X177800D01*
G02X165100Y177800I0J12700D01*
G01Y279400D01*
G02X177800Y292100I12700J0D01*
G01X215900D01*
G37*
G36*
G01X337880Y-175700D02*
X332830Y-170550D01*
X323350Y-176650D01*
X332830Y-182750D01*
X337880Y-177600D01*
G03Y-175700I-1760J950D01*
G37*
G36*
G01X342360Y-177920D02*
X349100Y-183880D01*
X356100Y-176750D01*
X349100Y-169620D01*
X342360Y-175580D01*
G03Y-177920I1620J-1170D01*
G37*
G36*
G01X420250Y-219230D02*
X428100Y-211250D01*
X419100Y-204750D01*
X410100Y-211250D01*
X417950Y-219230D01*
G03X420250I1150J1630D01*
G37*
G36*
G01X388160Y-215320D02*
X392430Y-211230D01*
X387350Y-204750D01*
X382270Y-211230D01*
X386540Y-215320D01*
G03X388160I810J1830D01*
G37*
%LPC*%
G75*
G36*
G01X179500Y-114970D02*
X163240D01*
G02X150620Y-109750I-2J17860D01*
G01X150610Y-109740D01*
G03X147910Y-108620I-2702J-2698D01*
G01X73980D01*
G03X71570Y-110450I-1J-2501D01*
G01X70290Y-115100D01*
G03X71410Y-117910I2408J-669D01*
G02X40590Y-113540I-20610J-34490D01*
G03X42460Y-111120I-630J2419D01*
G03X39960Y-108620I-2500J0D01*
G01X30660D01*
G03X26640Y-110280I-7J-5682D01*
G01X-16720Y-153640D01*
G02X-30660Y-159420I-13948J13938D01*
G01X-375740D01*
G02X-389680Y-153640I8J19718D01*
G01X-521940Y-21380D01*
G02X-526340Y-14670I13943J13940D01*
G03X-528370Y-13110I-2323J-923D01*
G03X-528750Y-13070I-978J-7466D01*
G01X-532220D01*
G02X-534720Y-10570I0J2500D01*
G01Y6470D01*
G02X-532220Y8970I2500J0D01*
G01X-231360D01*
G02X-229730Y8360I-6J-2499D01*
G01X-226500Y5580D01*
G03X-224870Y4970I1636J1889D01*
G01X-159710D01*
G03X-155690Y6630I7J5682D01*
G01X-122980Y39340D01*
G02X-109040Y45120I13948J-13938D01*
G01X32840D01*
G03X36860Y46780I7J5682D01*
G01X42120Y52040D01*
G02X56060Y57820I13948J-13938D01*
G01X128850D01*
G03X131570Y58950I-7J3855D01*
G01X131580Y58960D01*
G02X139710Y63610I12640J-12668D01*
G03X141580Y66030I-630J2419D01*
G01Y67070D01*
X140120Y68530D01*
X139330D01*
Y72130D01*
G03X137790Y74440I-2499J2D01*
G01X137090Y74730D01*
X135620Y74450D01*
X130390Y69300D01*
G02X128640Y68580I-1755J1780D01*
G01X113080D01*
G02X110580Y71080I0J2500D01*
G01Y94120D01*
G02X113080Y96620I2500J0D01*
G01X128640D01*
G02X130390Y95900I-5J-2500D01*
G01X135080Y91290D01*
G03X137790Y90760I1754J1777D01*
G01X138500Y91050D01*
X139330Y92300D01*
Y94070D01*
G02X141830Y96570I2500J0D01*
G01X158870D01*
G02X161370Y94070I0J-2500D01*
G01Y66690D01*
G03X163870Y64190I2500J0D01*
G01X166330D01*
G03X168830Y66690I0J2500D01*
G01Y94070D01*
G02X171330Y96570I2500J0D01*
G01X190830D01*
G02X192540Y95890I-4J-2500D01*
G01X194690Y93860D01*
X195660Y93520D01*
X196180Y93550D01*
G02Y71550I670J-11000D01*
G01X195660Y71580D01*
X194690Y71240D01*
X191790Y68500D01*
G03X191180Y65760I1711J-1819D01*
G01X191460Y65050D01*
X192720Y64190D01*
X196830D01*
G02X210920Y50100I0J-14090D01*
G01Y42730D01*
G03X212460Y40420I2500J-2D01*
G01X213160Y40130D01*
X214640Y40420D01*
X227500Y53280D01*
G03X228230Y55050I-1770J1766D01*
G01Y79790D01*
G02X228840Y81420I2499J-6D01*
G01X231920Y84980D01*
X232230Y85820D01*
Y86100D01*
X228840Y90030D01*
G02X228230Y91660I1889J1636D01*
G01Y113120D01*
G02X230730Y115620I2500J0D01*
G01X247770D01*
G02X250270Y113120I0J-2500D01*
G01Y91660D01*
G02X249660Y90030I-2499J6D01*
G01X246580Y86460D01*
X246270Y85620D01*
Y85340D01*
X249660Y81420D01*
G02X250270Y79790I-1889J-1636D01*
G01Y61360D01*
G03X251010Y59590I2499J5D01*
G01X252060Y58550D01*
G03X253820Y57820I1765J1769D01*
G01X255230D01*
G03X257730Y60320I0J2500D01*
G01Y81370D01*
G02X260230Y83870I2500J0D01*
G01X275790D01*
G02X277540Y83150I-5J-2500D01*
G01X283190Y77590D01*
G03X284940Y76870I1755J1780D01*
G01X291610D01*
G03X293880Y78330I-3J2500D01*
G02X313770Y81310I10921J-5024D01*
G03X315630Y80470I1869J1659D01*
G01X319360D01*
G03X321230Y81310I1J2499D01*
G02X339700Y80670I8969J-8004D01*
G03X341110Y79770I1973J1536D01*
G01X342630Y79410D01*
G03X344290Y79600I562J2436D01*
G02X360100Y69780I4792J-9922D01*
G03X360840Y68030I2499J25D01*
G01X363340Y65550D01*
G03X365100Y64820I1765J1769D01*
G01X365260D01*
G03X367470Y66150I1J2499D01*
G01X369540Y70060D01*
G03X369410Y72620I-2209J1171D01*
G01X369400Y72630D01*
G02X366980Y80500I11587J7870D01*
G01Y85500D01*
G02X390360Y95940I14021J0D01*
G03X392030Y95300I1671J1860D01*
G01X395370D01*
G03X397040Y95940I-1J2500D01*
G02X420420Y85500I9359J-10440D01*
G01Y80500D01*
G02X416050Y70330I-14019J0D01*
G01X416030Y70310D01*
X413620Y67910D01*
X413260Y67190D01*
X413200Y66790D01*
G02X407640Y55770I-19499J2925D01*
G01X407630Y55760D01*
X407490Y55620D01*
G03X406770Y53860I1780J-1756D01*
G01Y41820D01*
G03X409270Y39320I2500J0D01*
G01X409930D01*
G03X411480Y40400I-2428J5137D01*
G03X411530Y40450I-1743J1793D01*
G02X411710Y40630I5052J-4872D01*
G01X423120Y52040D01*
G02X437060Y57820I13948J-13938D01*
G01X464360D01*
G03X466110Y58540I-5J2500D01*
G01X471760Y64100D01*
G02X473510Y64820I1755J-1780D01*
G01X473680D01*
X475140Y66280D01*
Y67910D01*
X474620Y68950D01*
X474150Y69310D01*
G02X468580Y80500I8455J11190D01*
G01Y85500D01*
G02X491960Y95940I14021J0D01*
G03X493630Y95300I1671J1860D01*
G01X496970D01*
G03X498640Y95940I-1J2500D01*
G02X522020Y85500I9359J-10440D01*
G01Y80500D01*
G02X517670Y70350I-14017J0D01*
G03X517630Y70310I1748J-1788D01*
G01X516950Y69630D01*
G03X516960Y66090I1770J-1765D01*
G01X517070Y65980D01*
Y65870D01*
X520340Y62610D01*
G02X521070Y60840I-1770J-1766D01*
G01Y36590D01*
G02X520630Y35180I-2499J6D01*
G01X518650Y32280D01*
G03X518380Y29980I2064J-1408D01*
G01Y29970D01*
G02X518790Y28750I-12860J-5001D01*
G01Y28740D01*
G03X519430Y27660I2403J694D01*
G01X522590Y24510D01*
G02X523320Y22740I-1770J-1766D01*
G01Y1180D01*
G02X520820Y-1320I-2500J0D01*
G01X501280D01*
Y-890D01*
X500640Y250D01*
X496430Y2810D01*
G03X493990Y2900I-1300J-2134D01*
G02X488340Y1700I-5034J9802D01*
G01X487830Y1730D01*
X486860Y1370D01*
X484740Y-630D01*
G02X483020Y-1320I-1724J1808D01*
G01X460490D01*
X459030Y140D01*
X458160Y1400D01*
X457420Y1680D01*
G03X454660Y990I-882J-2338D01*
G01X450990Y-3160D01*
G03X450370Y-4810I1881J-1648D01*
G01Y-4870D01*
X452740Y-7240D01*
G02X453470Y-9010I-1770J-1766D01*
G01Y-30570D01*
G02X450970Y-33070I-2500J0D01*
G01X450150D01*
X448850Y-34000D01*
X448590Y-34750D01*
G02X448390Y-35300I-15117J5186D01*
G01X448220Y-35730D01*
Y-62270D01*
G02X445720Y-64770I-2500J0D01*
G01X429980D01*
G03X427670Y-66310I-2J-2500D01*
G01X427380Y-67010D01*
X427670Y-68490D01*
X439390Y-80220D01*
G03X443410Y-81880I4013J4022D01*
G01X496110D01*
G03X497860Y-81160I-5J2500D01*
G01X503510Y-75600D01*
G02X505260Y-74880I1755J-1780D01*
G01X520820D01*
G02X523320Y-77380I0J-2500D01*
G01Y-100420D01*
G02X520820Y-102920I-2500J0D01*
G01X506230D01*
G03X503920Y-104460I-2J-2500D01*
G01X503630Y-105160D01*
X503920Y-106640D01*
X513540Y-116270D01*
G02X519320Y-130210I-13938J-13948D01*
G01Y-174070D01*
G03X519930Y-175700I2499J6D01*
G01X522710Y-178930D01*
G02X523320Y-180560I-1889J-1636D01*
G01Y-202020D01*
G02X520820Y-204520I-2500J0D01*
G01X503780D01*
G02X501280Y-202020I0J2500D01*
G01Y-180560D01*
G02X501890Y-178930I2499J-6D01*
G01X504670Y-175700D01*
G03X505280Y-174070I-1889J1636D01*
G01Y-130200D01*
G03X503620Y-126190I-5682J-3D01*
G01X494060Y-116630D01*
G03X490040Y-114970I-4013J-4022D01*
G01X437060D01*
G02X423120Y-109190I8J19718D01*
G01X392460Y-78530D01*
G02X386680Y-64590I13938J13948D01*
G01Y-52500D01*
G03X385510Y-50380I-2500J3D01*
G01X381360Y-47780D01*
X380070Y-47720D01*
X379490Y-48000D01*
G02X374040Y-49100I-4835J9902D01*
G01X373530Y-49070D01*
X372560Y-49430D01*
X370440Y-51430D01*
G02X368720Y-52120I-1724J1808D01*
G01X360180D01*
G03X357870Y-53660I-2J-2500D01*
G01X357580Y-54360D01*
X357870Y-55840D01*
X401290Y-99270D01*
G02X407070Y-113210I-13938J-13948D01*
G01Y-140800D01*
G03X408730Y-144810I5682J3D01*
G01X424050Y-160130D01*
G03X424070Y-160150I1778J1758D01*
G02X424510Y-160620I-4898J-5027D01*
G01X424590Y-160720D01*
X427910Y-164010D01*
G03X429670Y-164730I1756J1781D01*
G01X430620D01*
G02X433120Y-167230I0J-2500D01*
G01Y-184270D01*
G02X430620Y-186770I-2500J0D01*
G01X375830D01*
G02X373330Y-184270I0J2500D01*
G01Y-167230D01*
G02X375830Y-164730I2500J0D01*
G01X377520D01*
G03X379280Y-164010I4J2500D01*
G01X379590Y-163700D01*
G03X380330Y-161930I-1760J1775D01*
G01Y-119550D01*
G03X378670Y-115540I-5682J-3D01*
G01X354810Y-91690D01*
G03X352570Y-91000I-1770J-1765D01*
G01X347890Y-91900D01*
X346930Y-92670D01*
X346680Y-93250D01*
G02X335940Y-99900I-10124J4353D01*
G01X335430Y-99870D01*
X334460Y-100230D01*
X332340Y-102230D01*
G02X330620Y-102920I-1724J1808D01*
G01X309130D01*
G02X306630Y-100420I0J2500D01*
G01Y-79370D01*
G03X304130Y-76870I-2500J0D01*
G01X297360D01*
G02X283420Y-71090I8J19718D01*
G01X271110Y-58780D01*
G03X267090Y-57120I-4013J-4022D01*
G01X265310D01*
X265030Y-57180D01*
G02X263400Y-57370I-1651J7078D01*
G01X251900D01*
G02X245270Y-47120I0J7269D01*
G03Y-45080I-2283J1020D01*
G02Y-39120I6630J2980D01*
G03Y-37080I-2283J1020D01*
G02Y-31120I6630J2980D01*
G03Y-29080I-2283J1020D01*
G02Y-23120I6630J2980D01*
G03Y-21080I-2283J1020D01*
G02Y-15120I6630J2980D01*
G03Y-13080I-2283J1020D01*
G02X244860Y-11930I6619J3008D01*
G03X244210Y-10790I-2420J-624D01*
G01X243210Y-9790D01*
G03X242070Y-9140I-1764J-1770D01*
G02X240920Y-8730I1858J7029D01*
G03X238880I-1020J-2283D01*
G02X232920I-2980J6630D01*
G03X230880I-1020J-2283D01*
G02X224920I-2980J6630D01*
G03X222880I-1020J-2283D01*
G02X216920I-2980J6630D01*
G03X214880I-1020J-2283D01*
G02X208920I-2980J6630D01*
G03X206880I-1020J-2283D01*
G02X200920I-2980J6630D01*
G03X198880I-1020J-2283D01*
G02X192920I-2980J6630D01*
G03X190880I-1020J-2283D01*
G02X189730Y-9140I-3008J6619D01*
G03X188590Y-9790I624J-2420D01*
G01X187590Y-10790D01*
G03X186940Y-11930I1770J-1764D01*
G02X186530Y-13080I-7029J1858D01*
G03Y-15120I2283J-1020D01*
G02Y-21080I-6630J-2980D01*
G03Y-23120I2283J-1020D01*
G02Y-29080I-6630J-2980D01*
G03Y-31120I2283J-1020D01*
G02Y-37080I-6630J-2980D01*
G03Y-39120I2283J-1020D01*
G02Y-45080I-6630J-2980D01*
G03Y-47120I2283J-1020D01*
G02Y-53080I-6630J-2980D01*
G03Y-55120I2283J-1020D01*
G02Y-61080I-6630J-2980D01*
G03Y-63120I2283J-1020D01*
G02X186940Y-64270I-6619J-3008D01*
G03X187590Y-65410I2420J624D01*
G01X188590Y-66410D01*
G03X189730Y-67060I1764J1770D01*
G02X190880Y-67470I-1858J-7029D01*
G03X192920I1020J2283D01*
G02X198880I2980J-6630D01*
G03X200920I1020J2283D01*
G02X206880I2980J-6630D01*
G03X208920I1020J2283D01*
G02X216640Y-68590I2979J-6631D01*
G01X216980Y-68880D01*
X217810Y-69190D01*
X221990D01*
X222820Y-68880D01*
X223160Y-68590D01*
G02X230880Y-67470I4741J-5511D01*
G03X232920I1020J2283D01*
G02X238880I2980J-6630D01*
G03X240920I1020J2283D01*
G02X249340Y-69280I2979J-6630D01*
G03X251760Y-70070I1879J1653D01*
G02X260300Y-76920I1523J-6850D01*
G01Y-107230D01*
G03X260350Y-107280I50J0D01*
G01X266700D01*
G02X286420Y-127000I0J-19720D01*
G01Y-165100D01*
G02X272330Y-179190I-14090J0D01*
G01X248520D01*
G03X247640Y-179350I0J-2501D01*
G01X239200Y-182530D01*
G02X238320Y-182690I-880J2341D01*
G01X231580D01*
G02X230700Y-182530I0J2501D01*
G01X222260Y-179350D01*
G03X221380Y-179190I-880J-2341D01*
G01X197570D01*
G02X183480Y-165100I0J14090D01*
G01Y-126970D01*
G02X184290Y-121390I19722J-14D01*
G01X184460Y-120820D01*
X184250Y-119660D01*
X181500Y-115970D01*
G03X179500Y-114970I-2000J-1501D01*
G37*
G36*
G01X428680Y-125730D02*
X445720D01*
G02X448220Y-128230I0J-2500D01*
G01Y-151270D01*
G02X445720Y-153770I-2500J0D01*
G01X428680D01*
G02X426180Y-151270I0J2500D01*
G01Y-128230D01*
G02X428680Y-125730I2500J0D01*
G37*
G36*
G01X525220Y137030D02*
X488950D01*
G02X472860Y153120I0J16090D01*
G01Y157410D01*
G03X472210Y159090I-2500J-1D01*
G02X468580Y168500I10382J9410D01*
G01Y173500D01*
G02X472820Y183550I14016J6D01*
G03X473580Y185340I-1738J1794D01*
G01Y197130D01*
G03X472390Y199270I-2502J10D01*
G02X468970Y229870I10212J16632D01*
G03X469720Y231660I-1751J1786D01*
G01Y250940D01*
G03X468970Y252730I-2501J4D01*
G02X501210Y260820I13629J13972D01*
G01X501100Y260460D01*
Y258990D01*
X501790Y258300D01*
G02X502520Y256530I-1770J-1766D01*
G01Y225030D01*
X501100Y223610D01*
Y222140D01*
X501210Y221780D01*
G02X492810Y199270I-18611J-5877D01*
G03X491620Y197130I1312J-2130D01*
G01Y185340D01*
G03X492380Y183550I2499J5D01*
G02X492700Y183230I-9755J-10075D01*
G03X494490Y182470I1795J1739D01*
G01X496110D01*
G03X497900Y183230I-5J2499D01*
G02X498220Y183550I10075J-9755D01*
G03X498980Y185330I-1740J1795D01*
G02X505340Y200600I21721J-87D01*
G01X513760Y209020D01*
G03X514420Y211360I-1773J1763D01*
G02X515010Y222440I18981J4545D01*
G01X515150Y222850D01*
Y224320D01*
X513690Y225780D01*
X513480D01*
Y255360D01*
X514940Y256820D01*
X515150D01*
Y259750D01*
X515010Y260160D01*
G02X547030Y252730I18390J6541D01*
G03X546280Y250940I1751J-1786D01*
G01Y231660D01*
G03X547030Y229870I2501J-4D01*
G02X528860Y196920I-13633J-13967D01*
G03X526520Y196260I-577J-2433D01*
G01X518100Y187840D01*
G03X517030Y185550I2597J-2608D01*
G03X517780Y183540I2494J-214D01*
G02X518100Y183230I-9594J-10224D01*
G03X519890Y182470I1795J1739D01*
G01X521510D01*
G03X523310Y183230I4J2502D01*
G02X547420Y173500I10092J-9730D01*
G01Y168500D01*
G02X543180Y158450I-14016J-6D01*
G03X542420Y156660I1738J-1794D01*
G01Y154230D01*
G02X525220Y137030I-17200J0D01*
G37*
G36*
G01X424730Y136310D02*
X388070D01*
G02X371980Y152400I0J16090D01*
G01Y156660D01*
G03X371220Y158450I-2498J-4D01*
G02X366980Y168500I9776J10044D01*
G01Y173500D01*
G02X371220Y183550I14016J6D01*
G03X371980Y185340I-1738J1794D01*
G01Y197130D01*
G03X370790Y199270I-2502J10D01*
G02X367370Y229870I10212J16632D01*
G03X368120Y231660I-1751J1786D01*
G01Y250940D01*
G03X367370Y252730I-2501J4D01*
G02X399610Y260820I13629J13972D01*
G01X399500Y260460D01*
Y258990D01*
X400190Y258300D01*
G02X400920Y256530I-1770J-1766D01*
G01Y225030D01*
X399500Y223610D01*
Y222140D01*
X399610Y221780D01*
G02X391210Y199270I-18611J-5877D01*
G03X390020Y197130I1312J-2130D01*
G01Y185340D01*
G03X390780Y183550I2499J5D01*
G02X391100Y183230I-9755J-10075D01*
G03X392890Y182470I1795J1739D01*
G01X394510D01*
G03X396300Y183230I-5J2499D01*
G02X396620Y183550I10075J-9755D01*
G03X397380Y185330I-1740J1795D01*
G02X403740Y200600I21721J-87D01*
G01X412160Y209020D01*
G03X412820Y211360I-1773J1763D01*
G02X413410Y222440I18981J4545D01*
G01X413550Y222850D01*
Y224320D01*
X412090Y225780D01*
X411880D01*
Y255360D01*
X413340Y256820D01*
X413550D01*
Y259750D01*
X413410Y260160D01*
G02X445430Y252730I18390J6541D01*
G03X444680Y250940I1751J-1786D01*
G01Y231660D01*
G03X445430Y229870I2501J-4D01*
G02X427260Y196920I-13633J-13967D01*
G03X424920Y196260I-577J-2433D01*
G01X416500Y187840D01*
G03X415430Y185550I2597J-2608D01*
G03X416180Y183540I2494J-214D01*
G02X416500Y183230I-9594J-10224D01*
G03X418290Y182470I1795J1739D01*
G01X419910D01*
G03X421710Y183230I4J2502D01*
G02X445820Y173500I10092J-9730D01*
G01Y168500D01*
G02X441580Y158450I-14016J-6D01*
G03X440820Y156660I1738J-1794D01*
G01Y152400D01*
G02X424730Y136310I-16090J0D01*
G37*
G36*
G01X602680Y103760D02*
X602390Y103940D01*
X601720Y104130D01*
X600720D01*
G03X598220Y101630I0J-2500D01*
G01Y101130D01*
X572680D01*
G02X570180Y103630I0J2500D01*
G01Y122670D01*
G02X572680Y125170I2500J0D01*
G01X595720D01*
G02X598220Y122670I0J-2500D01*
G01Y122170D01*
X601720D01*
X602390Y122360D01*
X602680Y122540D01*
G02Y103760I5770J-9390D01*
G37*
G36*
G01X70580Y71080D02*
Y72080D01*
G03X69040Y74390I-2499J2D01*
G01X68340Y74680D01*
X66870Y74400D01*
X61640Y69250D01*
G02X59890Y68530I-1755J1780D01*
G01X44330D01*
G02X41830Y71030I0J2500D01*
G01Y94070D01*
G02X44330Y96570I2500J0D01*
G01X59890D01*
G02X61640Y95850I-5J-2500D01*
G01X66330Y91240D01*
G03X69040Y90710I1754J1777D01*
G01X69750Y91000D01*
X70580Y92250D01*
Y94120D01*
G02X73080Y96620I2500J0D01*
G01X90120D01*
G02X92620Y94120I0J-2500D01*
G01Y71080D01*
G02X90120Y68580I-2500J0D01*
G01X73080D01*
G02X70580Y71080I0J2500D01*
G37*
G36*
G01X631320Y45390D02*
Y44440D01*
G02X629330Y36880I-15372J4D01*
G01X629080Y36440D01*
X628970Y35430D01*
X630260Y31010D01*
X630910Y30230D01*
X631360Y29990D01*
G02X605670Y2490I-9055J-17290D01*
G03X603530Y3680I-2130J-1312D01*
G01X590270D01*
G03X588130Y2490I-10J-2502D01*
G02X557300Y-690I-16632J10212D01*
G01X557270Y-670D01*
X555670Y930D01*
G03X552150Y940I-1765J-1772D01*
G01X550590Y-600D01*
G02X548840Y-1320I-1755J1780D01*
G01X533280D01*
G02X530780Y1180I0J2500D01*
G01Y24220D01*
G02X533280Y26720I2500J0D01*
G01X537760D01*
G03X539850Y27850I-1J2500D01*
G01X542140Y31340D01*
G03X542340Y33710I-2092J1370D01*
G02X550070Y48860I10109J4389D01*
G01X550090D01*
G03X551760Y50160I-556J2437D01*
G01X553780Y54100D01*
X553810Y55220D01*
X553590Y55730D01*
G02X588130Y73710I17908J7764D01*
G03X590270Y72520I2130J1312D01*
G01X603530D01*
G03X605670Y73710I10J2502D01*
G02X632510Y46860I16635J-10211D01*
G01X631950Y46520D01*
X631320Y45390D01*
G37*
G36*
G01Y-56210D02*
Y-57160D01*
G02X629330Y-64720I-15372J4D01*
G01X629080Y-65160D01*
X628970Y-66170D01*
X630260Y-70590D01*
X630910Y-71370D01*
X631360Y-71610D01*
G02X605670Y-99110I-9055J-17290D01*
G03X603530Y-97920I-2130J-1312D01*
G01X590270D01*
G03X588130Y-99110I-10J-2502D01*
G02X557300Y-102290I-16632J10212D01*
G01X557270Y-102270D01*
X555670Y-100670D01*
G03X552150Y-100660I-1765J-1772D01*
G01X550590Y-102200D01*
G02X548840Y-102920I-1755J1780D01*
G01X533280D01*
G02X530780Y-100420I0J2500D01*
G01Y-77380D01*
G02X533280Y-74880I2500J0D01*
G01X537760D01*
G03X539850Y-73750I-1J2500D01*
G01X542140Y-70260D01*
G03X542340Y-67890I-2092J1370D01*
G02X550070Y-52740I10109J4389D01*
G01X550090D01*
G03X551760Y-51440I-556J2437D01*
G01X553780Y-47500D01*
X553810Y-46380D01*
X553590Y-45870D01*
G02X588130Y-27890I17908J7764D01*
G03X590270Y-29080I2130J1312D01*
G01X603530D01*
G03X605670Y-27890I10J2502D01*
G02X632510Y-54740I16635J-10211D01*
G01X631950Y-55080D01*
X631320Y-56210D01*
G37*
G36*
G01Y-157810D02*
Y-158760D01*
G02X629330Y-166320I-15372J4D01*
G01X629080Y-166760D01*
X628970Y-167770D01*
X630260Y-172190D01*
X630910Y-172970D01*
X631360Y-173210D01*
G02X605670Y-200710I-9055J-17290D01*
G03X603530Y-199520I-2130J-1312D01*
G01X590270D01*
G03X588130Y-200710I-10J-2502D01*
G02X557300Y-203890I-16632J10212D01*
G01X557270Y-203870D01*
X555670Y-202270D01*
G03X552150Y-202260I-1765J-1772D01*
G01X550590Y-203800D01*
G02X548840Y-204520I-1755J1780D01*
G01X533280D01*
G02X530780Y-202020I0J2500D01*
G01Y-178980D01*
G02X533280Y-176480I2500J0D01*
G01X537760D01*
G03X539850Y-175350I-1J2500D01*
G01X542140Y-171860D01*
G03X542340Y-169490I-2092J1370D01*
G02X550070Y-154340I10109J4389D01*
G01X550090D01*
G03X551760Y-153040I-556J2437D01*
G01X553780Y-149100D01*
X553810Y-147980D01*
X553590Y-147470D01*
G02X588130Y-129490I17908J7764D01*
G03X590270Y-130680I2130J1312D01*
G01X603530D01*
G03X605670Y-129490I10J2502D01*
G02X632510Y-156340I16635J-10211D01*
G01X631950Y-156680D01*
X631320Y-157810D01*
G37*
G36*
G01X485720Y-64770D02*
X468680D01*
G02X466180Y-62270I0J2500D01*
G01Y-39230D01*
G02X468680Y-36730I2500J0D01*
G01X485720D01*
G02X488220Y-39230I0J-2500D01*
G01Y-62270D01*
G02X485720Y-64770I-2500J0D01*
G37*
G36*
G01X342220Y155290D02*
G02X322230Y146300I-12019J6D01*
G03X319680Y146770I-1663J-1869D01*
G01X318430Y146290D01*
G03X316820Y143960I890J-2336D01*
G01Y143280D01*
X295280D01*
G02X292780Y145780I0J2500D01*
G01Y147400D01*
G03X290280Y149900I-2500J0D01*
G01X287950D01*
G03X286190Y149170I5J-2499D01*
G01X285420Y148410D01*
G02X283660Y147680I-1765J1769D01*
G01X282180D01*
X280720Y146220D01*
Y145680D01*
X255180D01*
G02X252680Y148180I0J2500D01*
G01Y165220D01*
G02X255180Y167720I2500J0D01*
G01X279250D01*
X279480Y167940D01*
X290280D01*
G03X292780Y170440I0J2500D01*
G01Y172060D01*
G02X295280Y174560I2500J0D01*
G01X295780D01*
Y177940D01*
G03X293530Y180430I-2500J3D01*
G02X288640Y182290I1030J10067D01*
G01X288070Y182700D01*
X286670Y182810D01*
X282080Y180450D01*
G03X280720Y178220I1140J-2225D01*
G01Y177680D01*
G02X278220Y175180I-2500J0D01*
G01X255180D01*
G02X252680Y177680I0J2500D01*
G01Y194720D01*
G02X255180Y197220I2500J0D01*
G01X255250D01*
G03X257740Y199540I-4J2500D01*
G02X260440Y208540I21662J-1594D01*
G03X260660Y210450I-2182J1219D01*
G02X265770Y229870I18741J5451D01*
G03X266520Y231660I-1751J1786D01*
G01Y250940D01*
G03X265770Y252730I-2501J4D01*
G02X298010Y260820I13629J13972D01*
G01X297900Y260460D01*
Y258990D01*
X298590Y258300D01*
G02X299320Y256530I-1770J-1766D01*
G01Y225030D01*
X297900Y223610D01*
Y222140D01*
X298010Y221780D01*
G02X297120Y207720I-18611J-5880D01*
G01Y207710D01*
X297110D01*
G03X297280Y205320I2277J-1039D01*
G01X299550Y201770D01*
G03X301660Y200620I2105J1351D01*
G01X304350D01*
G02X313490Y186160I0J-10119D01*
G03X313310Y184550I2261J-1068D01*
G02X313820Y179890I-21208J-4679D01*
G01Y177060D01*
G03X316320Y174560I2500J0D01*
G01X318680D01*
G03X321180Y177060I0J2500D01*
G01Y179890D01*
G02X321690Y184550I21718J-19D01*
G03X321510Y186160I-2441J542D01*
G02Y194840I9140J4340D01*
G03X321690Y196440I-2261J1065D01*
G02X321510Y197350I21211J4668D01*
G03X320320Y199070I-2462J-432D01*
G02X311810Y222440I9881J16832D01*
G01X311950Y222850D01*
Y224320D01*
X310490Y225780D01*
X310280D01*
Y255360D01*
X311740Y256820D01*
X311950D01*
Y259750D01*
X311810Y260160D01*
G02X343830Y252730I18390J6541D01*
G03X343080Y250940I1751J-1786D01*
G01Y231660D01*
G03X343830Y229870I2501J-4D01*
G02X346240Y204790I-13633J-13966D01*
G01Y204770D01*
X346230D01*
G03X345820Y203050I2070J-1402D01*
G01X346230Y199730D01*
G03X347080Y198150I2480J316D01*
G02X341470Y180430I-6628J-7650D01*
G03X339220Y177940I250J-2487D01*
G01Y171380D01*
G03X339740Y169860I2499J6D01*
G02X342220Y162550I-9541J-7312D01*
G01Y155290D01*
G37*
G36*
G01X-113600Y157250D02*
X-115000D01*
G03X-115710Y156960I-5J-1001D01*
G02X-127670Y161940I-4941J4986D01*
G01Y176700D01*
G02X-115710Y181680I7019J-6D01*
G03X-115000Y181390I705J711D01*
G01X-113600D01*
G03X-112890Y181680I5J1001D01*
G02X-100930Y176700I4941J-4986D01*
G01Y161940D01*
G02X-112890Y156960I-7019J6D01*
G03X-113600Y157250I-705J-711D01*
G37*
G36*
G01X-36430Y255100D02*
G02X-52470I-8020J5D01*
G01Y269860D01*
G02X-36430I8020J-5D01*
G01Y255100D01*
G37*
%LPD*%
G75*
G36*
G01X-520280Y-11290D02*
G02X-511700Y-8040I8301J-8964D01*
G01X-520710Y-1550D01*
X-529700Y-8040D01*
G02X-520830Y-11290I434J-12545D01*
G03X-520280I275J1980D01*
G37*
G36*
G01X-494880D02*
G02X-486300Y-8040I8301J-8964D01*
G01X-495310Y-1550D01*
X-504300Y-8040D01*
G02X-495430Y-11290I434J-12545D01*
G03X-494880I275J1980D01*
G37*
G36*
G01X-469480D02*
G02X-460900Y-8040I8301J-8964D01*
G01X-469910Y-1550D01*
X-478900Y-8040D01*
G02X-470030Y-11290I434J-12545D01*
G03X-469480I275J1980D01*
G37*
G36*
G01X-444080D02*
G02X-435500Y-8040I8301J-8964D01*
G01X-444510Y-1550D01*
X-453500Y-8040D01*
G02X-444630Y-11290I434J-12545D01*
G03X-444080I275J1980D01*
G37*
G36*
G01X-418680D02*
G02X-410100Y-8040I8301J-8964D01*
G01X-419110Y-1550D01*
X-428100Y-8040D01*
G02X-419230Y-11290I434J-12545D01*
G03X-418680I275J1980D01*
G37*
G36*
G01X-393280D02*
G02X-384700Y-8040I8301J-8964D01*
G01X-393710Y-1550D01*
X-402700Y-8040D01*
G02X-393830Y-11290I434J-12545D01*
G03X-393280I275J1980D01*
G37*
G36*
G01X-367880D02*
G02X-359300Y-8040I8301J-8964D01*
G01X-368310Y-1550D01*
X-377300Y-8040D01*
G02X-368430Y-11290I434J-12545D01*
G03X-367880I275J1980D01*
G37*
G36*
G01X-342480D02*
G02X-333900Y-8040I8301J-8964D01*
G01X-342910Y-1550D01*
X-351900Y-8040D01*
G02X-343030Y-11290I434J-12545D01*
G03X-342480I275J1980D01*
G37*
G36*
G01X-317080D02*
G02X-308500Y-8040I8301J-8964D01*
G01X-317510Y-1550D01*
X-326500Y-8040D01*
G02X-317630Y-11290I434J-12545D01*
G03X-317080I275J1980D01*
G37*
G36*
G01X-265640Y-14400D02*
X-259210Y-8030D01*
X-266700Y-1550D01*
X-274190Y-8030D01*
X-267760Y-14400D01*
G03X-265640I1060J1700D01*
G37*
G36*
G01X-291680Y-11290D02*
G02X-283100Y-8040I8301J-8964D01*
G01X-292110Y-1550D01*
X-301100Y-8040D01*
G02X-292230Y-11290I434J-12545D01*
G03X-291680I275J1980D01*
G37*
G36*
G01X-226640Y-940D02*
X-232300Y3950D01*
X-241800Y-2050D01*
X-232300Y-8050D01*
X-226640Y-3160D01*
G03Y-940I-1670J1110D01*
G37*
G36*
G01X72530Y-12560D02*
G02X75610Y-15400I-2273J-5555D01*
G01X82000Y-6090D01*
X75610Y2600D01*
G02X72440Y-11760I-18985J-3339D01*
G03X72530Y-12560I1992J-181D01*
G37*
G36*
G01X83390Y-18580D02*
G02X87600Y-15390I6286J-3923D01*
G01X81540Y-5900D01*
X75600Y-15390D01*
G02X82540Y-18620I-543J-10237D01*
G03X83390Y-18580I333J1970D01*
G37*
G36*
G01X70570Y81650D02*
X75610Y76500D01*
X82100Y82600D01*
X75610Y88700D01*
X70570Y83550D01*
G03Y81650I1760J-950D01*
G37*
G36*
G01X66830Y83700D02*
X58850Y91550D01*
X52350Y82550D01*
X58850Y73550D01*
X66830Y81400D01*
G03Y83700I-1630J1150D01*
G37*
G36*
G01X153550Y-11850D02*
Y-6350D01*
X145700Y-6000D01*
X146050Y-13850D01*
X151550D01*
G03X153550Y-11850I0J2000D01*
G37*
G36*
G01X167940Y14110D02*
X164050Y18000D01*
X158250Y12700D01*
X164050Y7400D01*
X167940Y11290D01*
G03Y14110I-1410J1410D01*
G37*
G36*
G01X168610Y30340D02*
X172500Y26450D01*
X178300Y31750D01*
X172500Y37050D01*
X168610Y33160D01*
G03Y30340I1410J-1410D01*
G37*
G36*
G01X187790Y28870D02*
G02X185290Y31660I2682J4918D01*
G01X177340Y31940D01*
X183280Y26650D01*
G02X187020Y26940I2290J-5275D01*
G03X187790Y28870I-1201J1598D01*
G37*
G36*
G01X139320Y81600D02*
X144370Y76450D01*
X150850Y82550D01*
X144370Y88650D01*
X139320Y83500D01*
G03Y81600I1760J-950D01*
G37*
G36*
G01X135580Y83750D02*
X127600Y91600D01*
X121100Y82600D01*
X127600Y73600D01*
X135580Y81450D01*
G03Y83750I-1630J1150D01*
G37*
G36*
G01X236360Y-159470D02*
X242020Y-153810D01*
X236950Y-151900D01*
X232950D01*
X227880Y-153810D01*
X233540Y-159470D01*
G03X236360I1410J1410D01*
G37*
G36*
G01X233540Y-165100D02*
X227880Y-170760D01*
X232950Y-172670D01*
X236950D01*
X242020Y-170760D01*
X236360Y-165100D01*
G03X233540I-1410J-1410D01*
G37*
G36*
G01X233240Y-153440D02*
X239270Y-159530D01*
X245750Y-152400D01*
X239270Y-145270D01*
X233240Y-151360D01*
G03Y-153440I1710J-1040D01*
G37*
G36*
G01X236660Y-151360D02*
X230630Y-145270D01*
X224150Y-152400D01*
X230630Y-159530D01*
X236660Y-153440D01*
G03Y-151360I-1710J1040D01*
G37*
G36*
G01X218250Y-107600D02*
X222250D01*
X222600Y-101250D01*
X216250Y-101600D01*
Y-105600D01*
G03X218250Y-107600I2000J0D01*
G37*
G36*
G01X226890Y-93940D02*
G02X223430Y-95730I-4209J3897D01*
G01X221940Y-101990D01*
X227710Y-99140D01*
G02X228680Y-95370I5746J531D01*
G03X226890Y-93940I-1920J-568D01*
G37*
G36*
G01X250160Y-128410D02*
X254050Y-132300D01*
X259850Y-127000D01*
X254050Y-121700D01*
X250160Y-125590D01*
G03Y-128410I1410J-1410D01*
G37*
G36*
G01X264380Y-136160D02*
G02X264730Y-132210I5647J1490D01*
G01X259150Y-126540D01*
X259360Y-134490D01*
G02X262460Y-136980I-1887J-5524D01*
G03X264380Y-136160I290J1979D01*
G37*
G36*
G01X261640Y-139490D02*
X256750Y-145150D01*
X262750Y-152900D01*
X268750Y-145150D01*
X263860Y-139490D01*
G03X261640I-1110J-1670D01*
G37*
G36*
G01X219740Y-125590D02*
X215850Y-121700D01*
X210050Y-127000D01*
X215850Y-132300D01*
X219740Y-128410D01*
G03Y-125590I-1410J1410D01*
G37*
G36*
G01X207440Y-136980D02*
G02X210540Y-134490I4987J-3034D01*
G01X210750Y-126540D01*
X205170Y-132210D01*
G02X205520Y-136160I-5297J-2460D01*
G03X207440Y-136980I1630J1159D01*
G37*
G36*
G01X206040Y-139490D02*
X201150Y-145150D01*
X207150Y-152900D01*
X213150Y-145150D01*
X208260Y-139490D01*
G03X206040I-1110J-1670D01*
G37*
G36*
G01X282730Y71000D02*
X274750Y78850D01*
X268250Y69850D01*
X274750Y60850D01*
X282730Y68700D01*
G03Y71000I-1630J1150D01*
G37*
G36*
G01X239560Y58380D02*
X242580Y60880D01*
X239250Y70350D01*
X235920Y60880D01*
X238940Y58380D01*
G03X239560I310J1980D01*
G37*
G36*
G01X238140Y84510D02*
X233250Y78850D01*
X239250Y69350D01*
X245250Y78850D01*
X240360Y84510D01*
G03X238140I-1110J-1670D01*
G37*
G36*
G01X240360Y86940D02*
X245250Y92600D01*
X239250Y102100D01*
X233250Y92600D01*
X238140Y86940D01*
G03X240360I1110J1670D01*
G37*
G36*
G01X298800Y-40450D02*
Y-44450D01*
X305150Y-44800D01*
X304800Y-38450D01*
X300800D01*
G03X298800Y-40450I0J-2000D01*
G37*
G36*
G01X318810Y-38220D02*
G02X322060Y-47100I-9297J-8437D01*
G01X329550Y-38110D01*
X322060Y-29100D01*
G02X318810Y-37670I-12213J-270D01*
G03Y-38220I1980J-275D01*
G37*
G36*
G01X301290Y7760D02*
X297400Y11650D01*
X291600Y6350D01*
X297400Y1050D01*
X301290Y4940D01*
G03Y7760I-1410J1410D01*
G37*
G36*
G01X283650Y12600D02*
G02X284990Y8720I-4763J-3816D01*
G01X292470Y6010D01*
X289060Y13200D01*
G02X285080Y14160I-654J6019D01*
G03X283650Y12600I535J-1926D01*
G37*
G36*
G01X386340Y-164090D02*
X380590Y-169770D01*
X387350Y-176250D01*
X394110Y-169770D01*
X388360Y-164090D01*
G03X386340I-1010J-1730D01*
G37*
G36*
G01X418040Y-163400D02*
X411610Y-169770D01*
X419100Y-176250D01*
X426590Y-169770D01*
X420160Y-163400D01*
G03X418040I-1060J-1700D01*
G37*
G36*
G01X407810Y69190D02*
X412760Y74140D01*
X406400Y83500D01*
X400040Y74140D01*
X404990Y69190D01*
G03X407810I1410J1410D01*
G37*
G36*
G01X352270Y49650D02*
X360250Y41800D01*
X366750Y50800D01*
X360250Y59800D01*
X352270Y51950D01*
G03Y49650I1630J-1150D01*
G37*
G36*
G01X498320Y-90050D02*
X506300Y-97900D01*
X512800Y-88900D01*
X506300Y-79900D01*
X498320Y-87750D01*
G03Y-90050I1630J-1150D01*
G37*
G36*
G01X443100Y-31410D02*
X446750Y-28030D01*
X442450Y-18550D01*
X438150Y-28030D01*
X441800Y-31410D01*
G03X443100I650J1890D01*
G37*
G36*
G01X441490Y-5020D02*
X436450Y-10050D01*
X442450Y-19550D01*
X448450Y-10050D01*
X443410Y-5020D01*
G03X441490I-960J-1760D01*
G37*
G36*
G01X444510Y-2920D02*
X450350Y3700D01*
X443350Y13200D01*
X436350Y3700D01*
X442190Y-2920D01*
G03X444510I1160J1630D01*
G37*
G36*
G01X436960Y-38530D02*
G02X431200Y-41760I-6969J5677D01*
G01X437190Y-51250D01*
X443200Y-41760D01*
G02X437780Y-38530I1402J8516D01*
G03X436960I-410J-1959D01*
G37*
G36*
G01X434290Y12580D02*
X436460Y9800D01*
X443850Y12700D01*
X436460Y15600D01*
X434290Y12820D01*
G03Y12580I2000J-120D01*
G37*
G36*
G01X466570Y49650D02*
X474550Y41800D01*
X481050Y50800D01*
X474550Y59800D01*
X466570Y51950D01*
G03Y49650I1630J-1150D01*
G37*
G36*
G01X511190Y-175840D02*
X506300Y-181500D01*
X512300Y-191000D01*
X518300Y-181500D01*
X513410Y-175840D01*
G03X511190I-1110J-1670D01*
G37*
G36*
G01X559480Y-191920D02*
X564790Y-197210D01*
X572000Y-190500D01*
X564790Y-183790D01*
X559480Y-189080D01*
G03Y-191920I1410J-1420D01*
G37*
G36*
G01X555780Y-189350D02*
X547800Y-181500D01*
X541300Y-190500D01*
X547800Y-199500D01*
X555780Y-191650D01*
G03Y-189350I-1630J1150D01*
G37*
G36*
G01X559480Y-90320D02*
X564790Y-95610D01*
X572000Y-88900D01*
X564790Y-82190D01*
X559480Y-87480D01*
G03Y-90320I1410J-1420D01*
G37*
G36*
G01X555780Y-87750D02*
X547800Y-79900D01*
X541300Y-88900D01*
X547800Y-97900D01*
X555780Y-90050D01*
G03Y-87750I-1630J1150D01*
G37*
G36*
G01X509090Y64830D02*
X504050Y59800D01*
X510050Y50300D01*
X516050Y59800D01*
X511010Y64830D01*
G03X509090I-960J-1760D01*
G37*
G36*
G01X509410Y69190D02*
X514360Y74140D01*
X508000Y83500D01*
X501640Y74140D01*
X506590Y69190D01*
G03X509410I1410J1410D01*
G37*
G36*
G01X511340Y26730D02*
X506300Y21700D01*
X512300Y12200D01*
X518300Y21700D01*
X513260Y26730D01*
G03X511340I-960J-1760D01*
G37*
G36*
G01X559480Y11280D02*
X564790Y5990D01*
X572000Y12700D01*
X564790Y19410D01*
X559480Y14120D01*
G03Y11280I1410J-1420D01*
G37*
G36*
G01X555780Y13850D02*
X547800Y21700D01*
X541300Y12700D01*
X547800Y3700D01*
X555780Y11550D01*
G03Y13850I-1630J1150D01*
G37*
G54D10*
X-609600Y-254000D03*
Y254000D03*
X50800Y-152400D03*
Y152400D03*
X609600Y-254000D03*
Y254000D03*
G54D11*
X-520700Y-2050D03*
X-495300D03*
X-520700Y27450D03*
X-495300D03*
X-469900Y-2050D03*
X-444500D03*
X-419100D03*
X-469900Y27450D03*
X-444500D03*
X-419100D03*
X-393700Y-2050D03*
X-368300D03*
X-342900D03*
X-393700Y27450D03*
X-368300D03*
X-342900D03*
X-317500Y-2050D03*
X-292100D03*
X-266700D03*
X-317500Y27450D03*
X-292100D03*
X-266700D03*
X-241300Y-2050D03*
Y27450D03*
X266700Y156700D03*
Y186200D03*
X387350Y-175750D03*
Y-205250D03*
X419100Y-175750D03*
Y-205250D03*
G54D20*
X-120650Y169320D03*
X-107950D03*
Y262480D03*
X-95250Y169320D03*
X-82550D03*
X-69850D03*
X-57150D03*
X-44450D03*
Y262480D03*
X-57150D03*
X-69850D03*
X-82550D03*
X-95250D03*
G54D12*
X-405400Y279400D03*
X-369300D03*
X335550Y-152400D03*
X299450D03*
X335550Y190500D03*
X299450D03*
G54D21*
X-120650Y262480D03*
G54D30*
X346000Y-274400D03*
X466000D03*
G54D40*
G01X179850Y82550D02*
X196850D01*
G01X304800Y158920D02*
X283200D01*
X280970Y156700D01*
X266700D01*
G01Y186200D02*
Y197940D01*
G02X270420Y206920I12700J-1D01*
G01X279400Y215900D01*
G01X292100Y-223400D02*
Y-241300D01*
G01X323850Y-204350D02*
Y-222250D01*
G01X318650Y-88900D02*
X336550D01*
G01X330200Y69680D02*
X349080D01*
G01X304800Y158920D02*
Y179890D01*
G03X301080Y188870I-12700J-1D01*
G01X299450Y190500D01*
G01X330200Y215900D02*
Y232810D01*
G03X326690Y241290I-11990J4D01*
G01X326680Y241300D01*
G01X330200Y158920D02*
Y179890D01*
G02X333920Y188870I12700J-1D01*
G01X335550Y190500D01*
G01X330200Y215900D02*
Y201110D01*
G03X333920Y192130I12700J1D01*
G01X335550Y190500D01*
G01X279400Y215900D02*
Y232810D01*
G02X282910Y241290I11990J4D01*
G01X282920Y241300D01*
G01X330200Y266700D02*
Y249790D01*
G02X326690Y241310I-11990J-4D01*
G01X326680Y241300D01*
G01X279400Y266700D02*
Y249790D01*
G03X282910Y241310I11990J-4D01*
G01X282920Y241300D01*
G01X355600Y-204250D02*
Y-210640D01*
G03X359320Y-219620I12700J1D01*
G01X367280Y-227580D01*
G02X371000Y-236560I-8980J-8981D01*
G01Y-249400D01*
G01X356750Y-38100D02*
X374650D01*
G01X381000Y171000D02*
Y152400D01*
G03X388070Y145330I7070J0D01*
G01X424730D01*
G03X431800Y152400I0J7070D01*
G01Y171000D01*
G01X381000Y215900D02*
Y232810D01*
G02X384510Y241290I11990J4D01*
G01X384520Y241300D01*
G01X381000Y215900D02*
Y171000D01*
G01X406400D02*
Y185240D01*
G02X410120Y194220I12700J-1D01*
G01X431800Y215900D01*
G01X381000Y266700D02*
Y249790D01*
G03X384510Y241310I11990J-4D01*
G01X384520Y241300D01*
G01X431800Y266700D02*
Y249790D01*
G02X428290Y241310I-11990J-4D01*
G01X428280Y241300D01*
G01X431800Y215900D02*
Y232810D01*
G03X428290Y241290I-11990J4D01*
G01X428280Y241300D01*
G01X450850Y-204250D02*
Y-212290D01*
G02X447130Y-221270I-12700J1D01*
G01X444720Y-223680D01*
G03X441000Y-232660I8980J-8981D01*
G01Y-249400D01*
G01X477200Y-139750D02*
Y-159250D01*
G01X450850Y-176750D02*
X469900D01*
G01X471050Y12700D02*
X488950D01*
G01X482600Y171000D02*
X481880Y170280D01*
Y153120D01*
G03X488950Y146050I7070J0D01*
G01X525220D01*
G03X533400Y154230I0J8180D01*
G01Y171000D01*
G01X482600Y215900D02*
Y232810D01*
G02X486110Y241290I11990J4D01*
G01X486120Y241300D01*
G01X482600Y171000D02*
Y215900D01*
G01Y266700D02*
Y249790D01*
G03X486110Y241310I11990J-4D01*
G01X486120Y241300D01*
G01X569450Y-165100D02*
X552450D01*
G01X622300Y-190500D02*
X571500D01*
G01X622300Y-139700D02*
X571500D01*
G01X622300Y-88900D02*
X571500D01*
G01X569450Y-63500D02*
X552450D01*
G01X622300Y-38100D02*
X571500D01*
G01X569450Y38100D02*
X552450D01*
G01X622300Y63500D02*
X571500D01*
G01X622300Y12700D02*
X571500D01*
G01X533400Y215900D02*
Y232810D01*
G03X529890Y241290I-11990J4D01*
G01X529880Y241300D01*
G01X508000Y171000D02*
Y185240D01*
G02X511720Y194220I12700J-1D01*
G01X533400Y215900D01*
G01Y266700D02*
Y249790D01*
G02X529890Y241310I-11990J-4D01*
G01X529880Y241300D01*
G01X598950Y-165100D02*
X615950D01*
G03X622300Y-158750I0J6350D01*
G01Y-139700D01*
G01X598950Y-63500D02*
X615950D01*
G03X622300Y-57150I0J6350D01*
G01Y-38100D01*
G01X598950Y38100D02*
X615950D01*
G03X622300Y44450I0J6350D01*
G01Y63500D01*
G01X584200Y113150D02*
X608450D01*
G54D31*
X318650Y-88900D03*
X290950D03*
X329050Y-38100D03*
X356750D03*
X471050Y12700D03*
X443350D03*
G54D22*
X23350Y82550D03*
X121600Y-6400D03*
X81600D03*
X52850Y82550D03*
X121600Y82600D03*
X81600D03*
X179850Y82550D03*
X150350D03*
X239250Y69850D03*
X268750D03*
Y101600D03*
X239250D03*
X395750Y50800D03*
X366250D03*
X477200Y-139750D03*
X437200D03*
X471950Y-19050D03*
X442450D03*
X477200Y-50750D03*
X437200D03*
X480550Y50800D03*
X569450Y-165100D03*
X541800Y-190500D03*
X512300D03*
X541800Y-88900D03*
X512300D03*
X569450Y-63500D03*
X510050Y50800D03*
X569450Y38100D03*
X541800Y12700D03*
X512300D03*
X598950Y-165100D03*
Y-63500D03*
Y38100D03*
G54D13*
X-342900Y63500D03*
X-368300D03*
X-342900Y88900D03*
X-368300D03*
X-393700D03*
X-266700Y63500D03*
X-292100D03*
X-317500D03*
X-266700Y88900D03*
X-292100D03*
X-317500D03*
X-190500Y63500D03*
X-215900D03*
X-241300D03*
X-190500Y88900D03*
X-215900D03*
X-241300D03*
X-165100Y63500D03*
Y88900D03*
G54D32*
X304800Y69680D03*
X330200D03*
Y158920D03*
G54D23*
X28150Y222250D03*
X98850D03*
G54D14*
X-393700Y63500D03*
G54D33*
X304800Y158920D03*
G54D15*
X-361950Y221100D03*
Y248800D03*
X-12700Y208400D03*
Y236100D03*
X323850Y-204350D03*
Y-176650D03*
X292100Y-223400D03*
Y-195700D03*
X584200Y113150D03*
Y140850D03*
G54D24*
X127000Y215900D03*
Y266700D03*
X177800Y215900D03*
Y266700D03*
X279400Y215900D03*
Y266700D03*
X330200Y215900D03*
Y266700D03*
X381000Y215900D03*
X431800D03*
X381000Y266700D03*
X431800D03*
X482600Y215900D03*
Y266700D03*
X571500Y-190500D03*
Y-139700D03*
Y-88900D03*
Y-38100D03*
Y63500D03*
Y12700D03*
X533400Y215900D03*
Y266700D03*
X622300Y-190500D03*
Y-139700D03*
Y-88900D03*
Y-38100D03*
Y63500D03*
Y12700D03*
G54D34*
X326680Y241300D03*
X428280D03*
X529880D03*
G54D25*
X187900Y-79850D03*
X195900D03*
Y3650D03*
X187900D03*
X203900Y-79850D03*
X211900D03*
X219900D03*
X227900D03*
X235900D03*
X243900D03*
Y3650D03*
X235900D03*
X227900D03*
X219900D03*
X211900D03*
X203900D03*
G54D16*
X-342900Y177800D03*
X-368300Y203200D03*
Y177800D03*
X-292100Y139700D03*
X-279400D03*
X-292100Y165100D03*
X-50800Y139700D03*
Y114300D03*
X-63500Y279400D03*
X-76200D03*
X-25400Y254000D03*
Y279400D03*
X196850Y82550D03*
X222250Y-101600D03*
X215900Y177800D03*
Y215900D03*
Y279400D03*
Y241300D03*
X292100Y-241300D03*
X323850Y-222250D03*
X336550Y-88900D03*
X304800Y-44450D03*
X349080Y69680D03*
X374650Y-38100D03*
X477200Y-159250D03*
X469900Y-176750D03*
X488950Y12700D03*
X552450Y-165100D03*
Y-63500D03*
Y38100D03*
X608450Y113150D03*
G54D17*
X-311150Y191000D03*
Y253500D03*
G54D26*
X146050Y-6350D03*
X158750Y12700D03*
X177800Y31750D03*
X259350Y-127000D03*
X210550D03*
X292100Y6350D03*
G54D35*
X371000Y-249400D03*
X416000D03*
X396000D03*
X441000D03*
G54D18*
X-215900Y153200D03*
Y253200D03*
G54D36*
X428500Y-274400D03*
X383500D03*
G54D27*
X174150Y-10100D03*
Y-18100D03*
Y-26100D03*
Y-34100D03*
Y-42100D03*
Y-50100D03*
Y-58100D03*
Y-66100D03*
X257650D03*
Y-58100D03*
Y-50100D03*
Y-42100D03*
Y-34100D03*
Y-26100D03*
Y-18100D03*
Y-10100D03*
G54D37*
X355600Y-204250D03*
Y-176750D03*
X450850Y-204250D03*
Y-176750D03*
G54D19*
X-110520Y127000D03*
X-67280D03*
X34320Y273050D03*
X-8920D03*
G54D28*
X224650Y-152400D03*
X207150D03*
X245250D03*
X262750D03*
G54D29*
X282920Y241300D03*
X384520D03*
X486120D03*
G54D38*
X381000Y83000D03*
X406400D03*
X431800D03*
Y171000D03*
X406400D03*
X381000D03*
X482600Y83000D03*
X508000D03*
Y171000D03*
X482600D03*
X533400Y83000D03*
Y171000D03*
G54D39*
G01X203900Y-79850D02*
Y-97950D01*
G02X193900Y-107950I-10000J0D01*
G01X163240D01*
G02X155580Y-104780I0J10839D01*
G03X147910Y-101600I-7670J-7659D01*
G01X30660D01*
G03X21680Y-105320I1J-12700D01*
G01X-21680Y-148680D01*
G02X-30660Y-152400I-8981J8980D01*
G01X-375740D01*
G02X-384720Y-148680I1J12700D01*
G01X-516980Y-16420D01*
G02X-520700Y-7440I8980J8981D01*
G01Y-2050D01*
G01X-495300D02*
Y-7440D01*
G03X-491580Y-16420I12700J1D01*
G01X-372020Y-135980D01*
G03X-363040Y-139700I8981J8980D01*
G01X-43360D01*
G03X-34380Y-135980I-1J12700D01*
G01X8980Y-92620D01*
G02X17960Y-88900I8981J-8980D01*
G01X155350D01*
G02X163010Y-92080I-9J-10837D01*
G03X170680Y-95250I7661J7671D01*
G01X193000D01*
G03X195900Y-92350I0J2900D01*
G01Y-79850D01*
G01X-495300Y27450D02*
Y70940D01*
G02X-491580Y79920I12700J-1D01*
G01X-435520Y135980D01*
G02X-426540Y139700I8981J-8980D01*
G01X-360860D01*
G02X-351880Y135980I-1J-12700D01*
G01X-321220Y105320D01*
G02X-317500Y96340I-8980J-8981D01*
G01Y88900D01*
G01X-520700Y27450D02*
Y70940D01*
G02X-516980Y79920I12700J-1D01*
G01X-448220Y148680D01*
G02X-439240Y152400I8981J-8980D01*
G01X-348160D01*
G02X-339180Y148680I-1J-12700D01*
G01X-295820Y105320D01*
G02X-292100Y96340I-8980J-8981D01*
G01Y88900D01*
G01X187900Y-79850D02*
X168750D01*
X165100Y-76200D01*
X5260D01*
G03X-3720Y-79920I1J-12700D01*
G01X-47080Y-123280D01*
G02X-56060Y-127000I-8981J8980D01*
G01X-350340D01*
G02X-359320Y-123280I1J12700D01*
G01X-466180Y-16420D01*
G02X-469900Y-7440I8980J8981D01*
G01Y-2050D01*
G01X174150Y-66100D02*
X53400D01*
X50800Y-63500D01*
X-7440D01*
G03X-16420Y-67220I1J-12700D01*
G01X-59780Y-110580D01*
G02X-68760Y-114300I-8981J8980D01*
G01X-337640D01*
G02X-346620Y-110580I1J12700D01*
G01X-440780Y-16420D01*
G02X-444500Y-7440I8980J8981D01*
G01Y-2050D01*
G01X174150Y-58100D02*
X69610D01*
G02X60800Y-54450I1J12459D01*
G03X51990Y-50800I-8813J-8814D01*
G01X-20140D01*
G03X-29120Y-54520I1J-12700D01*
G01X-72480Y-97880D01*
G02X-81460Y-101600I-8981J8980D01*
G01X-324940D01*
G02X-333920Y-97880I1J12700D01*
G01X-415380Y-16420D01*
G02X-419100Y-7440I8980J8981D01*
G01Y-2050D01*
G01Y27450D02*
Y76200D01*
G02X-406400Y88900I12700J0D01*
G01X-393700D01*
G01X-444500Y27450D02*
Y70940D01*
G02X-440780Y79920I12700J-1D01*
G01X-410120Y110580D01*
G02X-401140Y114300I8981J-8980D01*
G01X-381000D01*
G02X-368300Y101600I0J-12700D01*
G01Y88900D01*
G01X-469900Y27450D02*
Y70940D01*
G02X-466180Y79920I12700J-1D01*
G01X-422820Y123280D01*
G02X-413840Y127000I8981J-8980D01*
G01X-373560D01*
G02X-364580Y123280I-1J-12700D01*
G01X-346620Y105320D01*
G02X-342900Y96340I-8980J-8981D01*
G01Y88900D01*
G01X174150Y-50100D02*
X80760D01*
G02X71780Y-46380I1J12700D01*
G01X67220Y-41820D01*
G03X58240Y-38100I-8981J-8980D01*
G01X-32840D01*
G03X-41820Y-41820I1J-12700D01*
G01X-85180Y-85180D01*
G02X-94160Y-88900I-8981J8980D01*
G01X-312240D01*
G02X-321220Y-85180I1J12700D01*
G01X-389980Y-16420D01*
G02X-393700Y-7440I8980J8981D01*
G01Y-2050D01*
G01X174150Y-42100D02*
X91810D01*
G02X82830Y-38380I1J12700D01*
G01X73570Y-29120D01*
G03X64590Y-25400I-8981J-8980D01*
G01X-45540D01*
G03X-54520Y-29120I1J-12700D01*
G01X-97880Y-72480D01*
G02X-106860Y-76200I-8981J8980D01*
G01X-299540D01*
G02X-308520Y-72480I1J12700D01*
G01X-364580Y-16420D01*
G02X-368300Y-7440I8980J8981D01*
G01Y-2050D01*
G01X81600Y-6400D02*
X79020Y-8980D01*
G02X70040Y-12700I-8981J8980D01*
G01X-58240D01*
G03X-67220Y-16420I1J-12700D01*
G01X-110580Y-59780D01*
G02X-119560Y-63500I-8981J8980D01*
G01X-286840D01*
G02X-295820Y-59780I1J12700D01*
G01X-339180Y-16420D01*
G02X-342900Y-7440I8980J8981D01*
G01Y-2050D01*
G01Y63500D02*
Y27450D01*
G01X-368300Y63500D02*
Y27450D01*
G01X-393700Y63500D02*
Y27450D01*
G01X-369300Y279400D02*
X-347900D01*
G03X-339360Y282940I0J12070D01*
G02X-330820Y286480I8540J-8530D01*
G01X-102330D01*
G02X-95250Y279400I0J-7080D01*
G01Y262480D01*
G01X-317500Y-2050D02*
Y-7440D01*
G03X-313780Y-16420I12700J1D01*
G01X-283120Y-47080D01*
G03X-274140Y-50800I8981J8980D01*
G01X-132260D01*
G03X-123280Y-47080I-1J12700D01*
G01X-79920Y-3720D01*
G02X-70940Y0I8981J-8980D01*
G01X51890D01*
G03X60870Y3720I-1J12700D01*
G01X66850Y9700D01*
G02X75830Y13420I8980J-8979D01*
G01X94530D01*
G02X101600Y6350I0J-7070D01*
G01Y-19050D01*
G03X108650Y-26100I7050J0D01*
G01X174150D01*
G01X195900Y3650D02*
Y39050D01*
G03X188830Y46120I-7070J0D01*
G01X152980D01*
G03X144000Y42400I0J-12699D01*
G01X143420Y41820D01*
G02X134440Y38100I-8981J8980D01*
G01X62410D01*
G03X53430Y34380I1J-12700D01*
G01X48170Y29120D01*
G02X39190Y25400I-8981J8980D01*
G01X-96340D01*
G03X-105320Y21680I1J-12700D01*
G01X-148680Y-21680D01*
G02X-157660Y-25400I-8981J8980D01*
G01X-254000D01*
G02X-266700Y-12700I0J12700D01*
G01Y-2050D01*
G01X177800Y31750D02*
X156890D01*
G03X149220Y28580I-9J-10841D01*
G02X141560Y25400I-7669J7657D01*
G01X68760D01*
G03X59780Y21680I1J-12700D01*
G01X54520Y16420D01*
G02X45540Y12700I-8981J8980D01*
G01X-83640D01*
G03X-92620Y8980I1J-12700D01*
G01X-135980Y-34380D01*
G02X-144960Y-38100I-8981J8980D01*
G01X-261440D01*
G02X-270420Y-34380I1J12700D01*
G01X-288380Y-16420D01*
G02X-292100Y-7440I8980J8981D01*
G01Y-2050D01*
G01X-266700Y63500D02*
Y27450D01*
G01X-292100Y63500D02*
Y27450D01*
G01X-317500Y63500D02*
Y27450D01*
G01X203900Y3650D02*
Y50100D01*
G03X196830Y57170I-7070J0D01*
G01X144230D01*
G03X136540Y53990I-5J-10875D01*
G02X128840Y50800I-7695J7686D01*
G01X56060D01*
G03X47080Y47080I1J-12700D01*
G01X41820Y41820D01*
G02X32840Y38100I-8981J8980D01*
G01X-109040D01*
G03X-118020Y34380I1J-12700D01*
G01X-150730Y1670D01*
G02X-159710Y-2050I-8981J8980D01*
G01X-241300D01*
G01Y63500D02*
Y27450D01*
G01X81600Y-6400D02*
X82550Y-7350D01*
Y-13790D01*
G03X86270Y-22770I12700J1D01*
G01X93880Y-30380D01*
G03X102860Y-34100I8981J8980D01*
G01X174150D01*
G01X52850Y82550D02*
X72280D01*
X72330Y82600D01*
X81600D01*
G01X222250Y-101600D02*
X211800Y-112060D01*
G02X206380Y-114300I-5416J5427D01*
G01X203200D01*
G03X190500Y-127000I0J-12700D01*
G01Y-165100D01*
G03X197570Y-172170I7070J0D01*
G01X234950D01*
G01X146050Y-6350D02*
X154080Y-14380D01*
G03X163060Y-18100I8981J8980D01*
G01X174150D01*
G01Y-10100D02*
Y8070D01*
G03X169520Y12700I-4630J0D01*
G01X158750D01*
G01X187900Y3650D02*
Y22800D01*
G03X178950Y31750I-8950J0D01*
G01X177800D01*
G01X121600Y82600D02*
X141030D01*
X141080Y82550D01*
X150350D01*
G01X234950Y-172170D02*
Y-152400D01*
G01Y-172170D02*
X272330D01*
G03X279400Y-165100I0J7070D01*
G01Y-127000D01*
G03X266700Y-114300I-12700J0D01*
G01X260350D01*
G02X253280Y-107230I0J7070D01*
G01Y-76920D01*
G01X224650Y-152400D02*
X234950D01*
G01D02*
X245250D01*
G01X227900Y-79850D02*
Y-90690D01*
G02X224180Y-99670I-12700J1D01*
G01X222250Y-101600D01*
G01X219900Y-79850D02*
Y-69170D01*
G01X262750Y-152400D02*
Y-135210D01*
G03X259350Y-127000I-11607J2D01*
G01D02*
X247650D01*
G02X243900Y-123250I0J3750D01*
G01Y-79850D01*
G01X207150Y-152400D02*
Y-135210D01*
G02X210550Y-127000I11607J2D01*
G01D02*
X228600D01*
G03X235900Y-119700I0J7300D01*
G01Y-79850D01*
G01X257650Y-34100D02*
X289190D01*
G02X298170Y-37820I-1J-12700D01*
G01X304800Y-44450D01*
G01X387350Y-165820D02*
Y-119560D01*
G03X383630Y-110580I-12700J-1D01*
G01X346620Y-73570D01*
G03X337640Y-69850I-8981J-8980D01*
G01X297360D01*
G02X288380Y-66130I1J12700D01*
G01X276070Y-53820D01*
G03X267090Y-50100I-8981J-8980D01*
G01X257650D01*
G01X419100Y-165100D02*
X403770Y-149770D01*
G02X400050Y-140790I8980J8981D01*
G01Y-113210D01*
G03X396330Y-104230I-12700J-1D01*
G01X352970Y-60870D01*
G03X343990Y-57150I-8981J-8980D01*
G01X303710D01*
G02X294730Y-53430I1J12700D01*
G01X287120Y-45820D01*
G03X278140Y-42100I-8981J-8980D01*
G01X257650D01*
G01X219900Y-69170D02*
G02X222250Y-63500I8022J-3D01*
G01X329050Y-38100D02*
X322760D01*
G02X313780Y-34380I1J12700D01*
G01X309220Y-29820D01*
G03X300240Y-26100I-8981J-8980D01*
G01X257650D01*
G01X512300Y-190500D02*
Y-130210D01*
G03X508580Y-121230I-12700J-1D01*
G01X499020Y-111670D01*
G03X490040Y-107950I-8981J-8980D01*
G01X437060D01*
G02X428080Y-104230I1J12700D01*
G01X397420Y-73570D01*
G02X393700Y-64590I8980J8981D01*
G01Y-31750D01*
G03X381000Y-19050I-12700J0D01*
G01X313050D01*
X312100Y-18100D01*
X257650D01*
G01X512300Y-88900D02*
X443410D01*
G02X434430Y-85180I1J12700D01*
G01X416470Y-67220D01*
G02X412750Y-58240I8980J8981D01*
G01Y-24310D01*
G03X409030Y-15330I-12700J-1D01*
G01X400450Y-6750D01*
G03X391470Y-3030I-8980J-8979D01*
G01X319470D01*
G03X310940Y-6560I0J-12070D01*
G02X302400Y-10100I-8540J8531D01*
G01X257650D01*
G01X243900Y3650D02*
Y9400D01*
G02X247800Y13300I3900J0D01*
G01X248250D01*
X248920Y13970D01*
X279220D01*
G02X288200Y10250I-1J-12701D01*
G01X292100Y6350D01*
G01X268750Y69850D02*
X294360D01*
X294530Y69680D01*
X304800D01*
G01X239250Y69850D02*
Y60360D01*
G02X235530Y51380I-12700J1D01*
G01X215620Y31470D01*
G03X211900Y22490I8980J-8981D01*
G01Y3650D01*
G01X239250Y69850D02*
Y101600D01*
G01X227900Y3650D02*
Y13090D01*
G02X231620Y22070I12700J-1D01*
G01X243930Y34380D01*
G02X252910Y38100I8981J-8980D01*
G01X338410D01*
G02X346080Y34920I0J-10839D01*
G03X353740Y31750I7661J7672D01*
G01X407490D01*
G03X416470Y35470I0J12700D01*
G01X428080Y47080D01*
G02X437060Y50800I8981J-8980D01*
G01X480550D01*
G01X219900Y3650D02*
Y17790D01*
G02X223620Y26770I12700J-1D01*
G01X243930Y47080D01*
G02X252910Y50800I8981J-8980D01*
G01X366250D01*
G01X512300Y12700D02*
Y24970D01*
G03X505520Y31750I-6780J0D01*
G01X437060D01*
G03X428080Y28030I1J-12700D01*
G01X422100Y22050D01*
G02X413120Y18330I-8980J8979D01*
G01X354970D01*
G02X346440Y21860I0J12070D01*
G03X337900Y25400I-8540J-8531D01*
G01X250520D01*
G03X243450Y22470I2J-10000D01*
G01X239620Y18640D01*
G03X235900Y9660I8980J-8981D01*
G01Y3650D01*
G01X355600Y-176750D02*
X336220D01*
X336120Y-176650D01*
X323850D01*
G01D02*
Y-172470D01*
G01D02*
X331830Y-164490D01*
G03X335550Y-155510I-8980J8981D01*
G01Y-152400D01*
G01X443350Y12700D02*
X436290D01*
G03X428620Y9520I0J-10839D01*
G02X420960Y6350I-7660J7669D01*
G01X292100D01*
G01X419100Y-205250D02*
Y-224300D01*
X416000Y-227400D01*
Y-249400D01*
G01X387350Y-205250D02*
Y-213490D01*
G03X391070Y-222470I12700J1D01*
G01X392280Y-223680D01*
G02X396000Y-232660I-8980J-8981D01*
G01Y-249400D01*
G01X387350Y-175750D02*
Y-165820D01*
G01X419100Y-175750D02*
Y-165100D01*
G01X406400Y83000D02*
Y69710D01*
G02X402680Y60730I-12700J1D01*
G01X397870Y55920D01*
G03X395750Y50800I5122J-5120D01*
G01X442450Y-19050D02*
Y-29520D01*
G02X439820Y-35860I-8961J2D01*
G03X437200Y-42190I6341J-6332D01*
G01Y-50750D01*
G01X443350Y12700D02*
Y-5880D01*
X442450Y-6780D01*
Y-19050D01*
G01X571500Y-190500D02*
X541800D01*
G01X571500Y-88900D02*
X541800D01*
G01X508000Y83000D02*
Y65120D01*
X510050Y63070D01*
Y50800D01*
G01X571500Y12700D02*
X541800D01*
M02*
