G04 ================== begin FILE IDENTIFICATION RECORD ==================*
G04 Layout Name:  D:/Project/Circuit/other/Boom/pcb-mcu/BOOM-MCU_01v1.brd*
G04 Film Name:    TOP*
G04 File Format:  Gerber RS274X*
G04 File Origin:  Cadence Allegro 16.6-2015-S053*
G04 Origin Date:  Fri Sep 11 11:22:59 2015*
G04 *
G04 Layer:  ETCH/TOP*
G04 Layer:  PIN/TOP*
G04 Layer:  VIA CLASS/TOP*
G04 *
G04 Offset:    (0.000 0.000)*
G04 Mirror:    No*
G04 Mode:      Positive*
G04 Rotation:  0*
G04 FullContactRelief:  No*
G04 UndefLineWidth:     0.250*
G04 ================== end FILE IDENTIFICATION RECORD ====================*
%FSLAX34Y34*MOMM*%
%IR0*IPPOS*OFA0.00000B0.00000*MIA0B0*SFA1.00000B1.00000*%
%ADD13C,1.2*%
%ADD10C,5.*%
%ADD15C,1.5*%
%ADD17C,1.6*%
%ADD11C,1.7*%
%ADD14C,1.9*%
%ADD16C,2.9*%
%ADD12R,1.7X1.7*%
%ADD20C,3.504*%
%ADD19C,3.904*%
%ADD18C,8.036*%
G75*
%LPD*%
G75*
G36*
G01X-582820Y-283960D02*
X-582250Y-283440D01*
G03X-639040Y-226650I-27350J29440D01*
G01X-639560Y-227220D01*
X-641060Y-227560D01*
X-646110Y-225580D01*
G02X-647700Y-223250I911J2329D01*
G01Y223250D01*
G02X-646110Y225580I2501J1D01*
G01X-641060Y227560D01*
X-639560Y227220D01*
X-639040Y226650D01*
G03X-582250Y283440I29440J27350D01*
G01X-582820Y283960D01*
X-583160Y285460D01*
X-581180Y290510D01*
G02X-578850Y292100I2329J-911D01*
G01X578850D01*
G02X581180Y290510I1J-2501D01*
G01X583160Y285460D01*
X582820Y283960D01*
X582250Y283440D01*
G03X639040Y226650I27350J-29440D01*
G01X639560Y227220D01*
X641060Y227560D01*
X646110Y225580D01*
G02X647700Y223250I-911J-2329D01*
G01Y-223250D01*
G02X646110Y-225580I-2501J-1D01*
G01X641060Y-227560D01*
X639560Y-227220D01*
X639040Y-226650D01*
G03X582250Y-283440I-29440J-27350D01*
G01X582820Y-283960D01*
X583160Y-285460D01*
X581180Y-290510D01*
G02X578850Y-292100I-2329J911D01*
G01X447700D01*
G02X445500Y-290780I3J2499D01*
G01X443080Y-286290D01*
X443150Y-284920D01*
X443530Y-284340D01*
G03X413470I-15030J9940D01*
G01X413850Y-284920D01*
X413920Y-286290D01*
X411500Y-290780D01*
G02X409300Y-292100I-2203J1179D01*
G01X402700D01*
G02X400500Y-290780I3J2499D01*
G01X398080Y-286290D01*
X398150Y-284920D01*
X398530Y-284340D01*
G03X368470I-15030J9940D01*
G01X368850Y-284920D01*
X368920Y-286290D01*
X366500Y-290780D01*
G02X364300Y-292100I-2203J1179D01*
G01X-578850D01*
G02X-581180Y-290510I-1J2501D01*
G01X-583160Y-285460D01*
X-582820Y-283960D01*
G37*
%LPC*%
G75*
G36*
G01X-375180Y45440D02*
Y44980D01*
X-409720D01*
G02X-412220Y47480I0J2500D01*
G01Y82020D01*
X-411760D01*
Y84780D01*
X-411810Y85040D01*
G02X-382510Y103660I18113J3861D01*
G03X-379490I1510J1990D01*
G02X-357110I11190J-14760D01*
G03X-354090I1510J1990D01*
G02X-331710I11190J-14760D01*
G03X-328690I1510J1990D01*
G02X-306310I11190J-14760D01*
G03X-303290I1510J1990D01*
G02X-273640Y87350I11193J-14758D01*
G01X-273690Y86800D01*
X-273320Y85770D01*
X-269830Y82280D01*
X-268800Y81910D01*
X-268250Y81960D01*
G02X-255510Y78260I1547J-18458D01*
G03X-252490I1510J1990D01*
G02X-230110I11190J-14760D01*
G03X-227090I1510J1990D01*
G02X-204710I11190J-14760D01*
G03X-201690I1510J1990D01*
G02X-179310I11190J-14760D01*
G03X-176290I1510J1990D01*
G02Y48740I11190J-14760D01*
G03X-179310I-1510J-1990D01*
G02X-201690I-11190J14760D01*
G03X-204710I-1510J-1990D01*
G02X-227090I-11190J14760D01*
G03X-230110I-1510J-1990D01*
G02X-252490I-11190J14760D01*
G03X-255510I-1510J-1990D01*
G02X-277890I-11190J14760D01*
G03X-280910I-1510J-1990D01*
G02X-303290I-11190J14760D01*
G03X-306310I-1510J-1990D01*
G02X-328690I-11190J14760D01*
G03X-331710I-1510J-1990D01*
G02X-354090I-11190J14760D01*
G03X-357110I-1510J-1990D01*
G02X-372160Y45390I-11184J14762D01*
G01X-372420Y45440D01*
X-375180D01*
G37*
G36*
G01X163570Y-5990D02*
G02X139650Y9960I-17518J-360D01*
G03X141230Y12340I-918J2324D01*
G02X157050Y30140I17518J360D01*
G03X158580Y30860I-236J2488D01*
G01X159640Y31920D01*
G03X160360Y33450I-1768J1766D01*
G02X179500Y14310I17440J-1700D01*
G03X177970Y13590I236J-2488D01*
G01X176910Y12530D01*
G03X176190Y11000I1768J-1766D01*
G02X165150Y-3610I-17438J1701D01*
G03X163570Y-5990I918J-2324D01*
G37*
G54D20*
X259350Y-127000D03*
X210550D03*
X292100Y6350D03*
G54D19*
X127000Y215900D03*
Y266700D03*
X279400Y215900D03*
Y266700D03*
X330200Y215900D03*
Y266700D03*
X381000Y215900D03*
X431800D03*
X381000Y266700D03*
X431800D03*
X482600Y215900D03*
Y266700D03*
X571500Y-190500D03*
Y-139700D03*
Y-88900D03*
Y-38100D03*
Y63500D03*
Y12700D03*
X533400Y215900D03*
Y266700D03*
X622300Y-190500D03*
Y-139700D03*
Y-88900D03*
Y-38100D03*
Y63500D03*
Y12700D03*
G54D18*
X50800Y-152400D03*
Y152400D03*
%LPD*%
G75*
G54D10*
X-609600Y-254000D03*
Y254000D03*
X50800Y-152400D03*
Y152400D03*
X609600Y-254000D03*
Y254000D03*
G54D11*
X-342900Y63500D03*
X-368300D03*
X-342900Y88900D03*
X-368300D03*
X-393700D03*
X-266700Y63500D03*
X-292100D03*
X-317500D03*
X-266700Y88900D03*
X-292100D03*
X-317500D03*
X-190500Y63500D03*
X-215900D03*
X-241300D03*
X-190500Y88900D03*
X-215900D03*
X-241300D03*
X-165100Y63500D03*
Y88900D03*
G54D12*
X-393700Y63500D03*
G54D13*
X-342900Y177800D03*
X-368300Y203200D03*
Y177800D03*
X-292100Y139700D03*
X-279400D03*
X-292100Y165100D03*
X-50800Y139700D03*
Y114300D03*
X-63500Y279400D03*
X-76200D03*
X-25400Y254000D03*
Y279400D03*
X196850Y82550D03*
X222250Y-101600D03*
X215900Y177800D03*
Y215900D03*
Y279400D03*
Y241300D03*
X292100Y-241300D03*
X323850Y-222250D03*
X336550Y-88900D03*
X304800Y-44450D03*
X349080Y69680D03*
X374650Y-38100D03*
X477200Y-159250D03*
X469900Y-176750D03*
X488950Y12700D03*
X552450Y-165100D03*
Y-63500D03*
Y38100D03*
X608450Y113150D03*
G54D14*
X127000Y215900D03*
Y266700D03*
X177800Y215900D03*
Y266700D03*
X279400Y215900D03*
Y266700D03*
X330200Y215900D03*
Y266700D03*
X381000Y215900D03*
X431800D03*
X381000Y266700D03*
X431800D03*
X482600Y215900D03*
Y266700D03*
X571500Y-190500D03*
Y-139700D03*
Y-88900D03*
Y-38100D03*
Y63500D03*
Y12700D03*
X533400Y215900D03*
Y266700D03*
X622300Y-190500D03*
Y-139700D03*
Y-88900D03*
Y-38100D03*
Y63500D03*
Y12700D03*
G54D15*
X146050Y-6350D03*
X158750Y12700D03*
X177800Y31750D03*
X259350Y-127000D03*
X210550D03*
X292100Y6350D03*
G54D16*
X346000Y-274400D03*
X466000D03*
G54D17*
X428500D03*
X383500D03*
M02*
