M48
METRIC,TZ
T01C.5
;LEADER: 12 
;HEADER: 
;CODE  : ASCII 
;FILE  : PHONE-CODE_01v1-1-2.drl for  ... layers TOP and BOTTOM
;DESIGN: PHONE-CODE_01v1.brd
;T01 Holesize 1. = 0.500000 Tolerance = +0.000000/-0.000000 PLATED MM Quantity = 22
%
G90
T01
X107950Y114300
X101600Y469900
Y419100
X203200Y469900
Y419100
X152400Y469900
Y419100
X-50800Y469900
Y419100
X-101600Y469900
Y419100
X0Y469900
X0Y419100
X50800Y469900
Y419100
X44450Y298450
X171450Y311150
X184150Y342900
X146050Y190500
X209550Y311150
Y127000
Y101600
M30
